<mxfile host="Electron" modified="2023-09-23T15:19:08.127Z" agent="Mozilla/5.0 (Windows NT 10.0; Win64; x64) AppleWebKit/537.36 (KHTML, like Gecko) draw.io/21.7.5 Chrome/114.0.5735.289 Electron/25.8.1 Safari/537.36" etag="y5gj6VZVNK-HNo2nqa1l" version="21.7.5" type="device">
  <diagram name="Страница — 1" id="svp2YQaz2aHfOG72js31">
    <mxGraphModel dx="735" dy="473" grid="0" gridSize="10" guides="1" tooltips="1" connect="1" arrows="1" fold="1" page="0" pageScale="1" pageWidth="827" pageHeight="1169" math="0" shadow="0">
      <root>
        <mxCell id="0" />
        <mxCell id="1" parent="0" />
        <mxCell id="5e5Drool1029RDPdJJ9p-1" value="1" style="ellipse;whiteSpace=wrap;html=1;fontFamily=Helvetica;fontSize=16;" parent="1" vertex="1">
          <mxGeometry x="-42" y="106" width="24" height="24" as="geometry" />
        </mxCell>
        <mxCell id="5e5Drool1029RDPdJJ9p-2" value="2" style="ellipse;whiteSpace=wrap;html=1;fontFamily=Helvetica;fontSize=16;" parent="1" vertex="1">
          <mxGeometry x="95" y="137" width="24" height="24" as="geometry" />
        </mxCell>
        <mxCell id="5e5Drool1029RDPdJJ9p-5" value="5" style="ellipse;whiteSpace=wrap;html=1;fontFamily=Helvetica;fontSize=16;" parent="1" vertex="1">
          <mxGeometry x="61" y="48" width="24" height="24" as="geometry" />
        </mxCell>
        <mxCell id="5e5Drool1029RDPdJJ9p-10" value="b/1" style="edgeStyle=none;shape=connector;rounded=0;orthogonalLoop=1;jettySize=auto;html=1;labelBackgroundColor=default;fontFamily=Helvetica;fontSize=16;fontColor=default;endArrow=blockThin;endFill=1;" parent="1" source="5e5Drool1029RDPdJJ9p-1" target="5e5Drool1029RDPdJJ9p-5" edge="1">
          <mxGeometry x="0.0054" relative="1" as="geometry">
            <mxPoint x="38" y="135" as="sourcePoint" />
            <mxPoint x="132" y="222" as="targetPoint" />
            <Array as="points">
              <mxPoint x="-17" y="61" />
            </Array>
            <mxPoint as="offset" />
          </mxGeometry>
        </mxCell>
        <mxCell id="5e5Drool1029RDPdJJ9p-15" style="edgeStyle=none;shape=connector;rounded=0;orthogonalLoop=1;jettySize=auto;html=1;labelBackgroundColor=default;fontFamily=Helvetica;fontSize=16;fontColor=default;endArrow=blockThin;endFill=1;" parent="1" edge="1" target="5e5Drool1029RDPdJJ9p-1">
          <mxGeometry relative="1" as="geometry">
            <mxPoint x="-65" y="88" as="sourcePoint" />
            <mxPoint x="-19.999655314275728" y="113.72591171915622" as="targetPoint" />
          </mxGeometry>
        </mxCell>
        <mxCell id="Qa4QHLr7aCHY2gj8fnbk-11" value="a/0" style="edgeStyle=none;shape=connector;rounded=0;orthogonalLoop=1;jettySize=auto;html=1;labelBackgroundColor=default;fontFamily=Helvetica;fontSize=16;fontColor=default;endArrow=blockThin;endFill=1;" edge="1" parent="1" source="5e5Drool1029RDPdJJ9p-1" target="5e5Drool1029RDPdJJ9p-2">
          <mxGeometry relative="1" as="geometry">
            <mxPoint x="57.84" y="264.09000000000003" as="sourcePoint" />
            <mxPoint x="128.84" y="230.09" as="targetPoint" />
            <Array as="points">
              <mxPoint x="45" y="128" />
            </Array>
          </mxGeometry>
        </mxCell>
        <mxCell id="Qa4QHLr7aCHY2gj8fnbk-17" value="" style="shape=image;verticalLabelPosition=bottom;labelBackgroundColor=default;verticalAlign=top;aspect=fixed;imageAspect=0;image=data:image/png,iVBORw0KGgoAAAANSUhEUgAAAdUAAAGKCAIAAADVA0yCAAAAAXNSR0IArs4c6QAAIABJREFUeJzs3WdcE0kfB/BJI5AQem9BuoBSBSso2OsJYsEGVvSs2PDO3vX01EfFgqfiqWD3VKxUuyJSRAREkFAE6RAgpOw+L6KIiJS0DWG+L/zIkuz+g/LLZHYKDkVRAEEQBEkcHusCIAiCuiiYvxAEQdiA+QtBEIQNmL8QBEHYgPkLQRCEDZi/EARB2ID5C0EQhA2YvxAEQdiA+QtBEIQNmL8QBEHYgPkLQRCEDZi/EARB2ID5C0EQhA2YvxAEQdiA+QtBEIQNmL8QBEHYgPkLQRCEDSLWBciarKys/fv3m5mZGX+jqqqKdVFYQlF085nnm/z7CnyGsur69NzyjLyK8moWm8Njc3kEPJ5MIlDkid10la3oasY6SgQ8bElAnQ8O7j8kWkOGDKHT6VQq9dM3OByOTqcbN8H/Uk1NDetiJSTiefaoPiYdesrnMubdF5/eZpe+Z5RxOIilkaqVkZqGCkWeRCCR8DweyubwmPWcrILKdEZ5SWWdmb5Kd7q6u72BS3cdHA4nphcCQaIF81fE9PT0Xr58aWho2HikoqLiUxO5ubn8v6Ao2iyX+bpOLv8MQdBnqYVX4jJTs0uHu3ZzstS2NFTV01Bs/Vm1LE4Go/x9bvndFzm1LI6Xm/mYfqYqimTJ1AxBAoP5K0olJSWWlpbl5eXteXBlZeWnliAI0mIuq6uri7t+DPEQ5GJ0ZnhUuipNfsJA8yHOdHk5QTrHUrNLr8RlxiXlu9kZLBhnp6NOFXmpECQqMH9FKTIycvv27TExMcKcpKqqqsVc5vF4/Fxuls4aGhqiqh8rHwsrt5x5rqggt9jLwYouguZ/dW3D5djM8KiMBePsvNzNhT8hBIkDzF9R2rdvX15e3oEDB8Rxcn4uN3ZfNOJwOC32L2tqaoqjDNHi8pCz99LCotJ/H2//2wAz0Z4853PV5jPPKWTiuhm92+zEgCDJg/krStOnT/fw8PD395fkRaurq1vsX25oaGixH0N6crm8mrX8cIwylfzHdFcdNbF0FPAQ5PzD9H/vpwVNdfF0MhLHJSBIYDB/Ralnz55nzpxxdHTEuhAAAKipqWmxH6OhocHIyOjnXNbS0hLVpSsqKgYPHrx27VovLy/8L0aGlVXXL9gXOdiZPm9MT1Fd91cy8yqWHIxeMdl5iDNd3NeCoPaD+SsybDZbRUWloqKCTJbqO+9MJrPFXK6vr2/aXm78u7a2dkcvkZCQ4OzsDADo3r17UFCQr68vkfjDzbSy6vqAvZHDXIznjO4hshfWqqz8ikUHo1dMghEMSRGYvyKTlJQ0bdq01NRUrAsRUGMuN+tirqur+7m9TKfTdXR0fnWqy5cvT5w4sfHLbt26rVq1atasWfx3ptKq+gX7Ike4dps1ylYSL+ybrILKRQeiAic6De1lLMnrQtCvwPwVmdDQ0AcPHpw/fx7rQkSstra2WUuZH9BMJrPFfgwdHZ09e/asWbOm2Xl0dXVXrFgxb978ZcHPXK11JNDt8LOsgsqFf0ceWuZhadh1B1lD0gPmr8gEBgbq6OisXr0a60IkpK6ursV+DCaTSSaTKysrW3yWIk3Zss+4B2H7sZpmcudFzrkHaWf/GEEkwinLEMZg/oqMp6fnmjVrhg4dinUhGKurqxs6dOjTp09beQyNRluwYEFgYKAAncvCW3Ek1txANWCcneQvDUFNwSaAyCQnJ9vZwV9pQKFQiouL23zY8+fPDx48WF1dLYGSmlk7zfXaow/pue2apghB4gPbv6JRUFDg5ORUVFSEdSHYQxBEQUGBzWY3PaiiomLQzRKvZLhm3nhnZ2dzc3NsV8m58yLnYnR66B8jMKwBguD6k6IBG7+N8vPz2Wy2urq6k5OTo6Ojo6Ojk5OTiYnJ5M0RKyY59bL65agJSRrhahxyK+VtdmkPk04/exvqvGD+igbM30Zqamq5ublGRj9MNkv68IXLQ6QkfAEAOBzO2938SmwmzF8IQ7D/VzRg/jZSVFRsFr4AgMuxmROkbB2cMf1MH6cUVDIbsC4E6rpg/opGUlISzN9fKa9mPX/3eXQHl2AXN2Uq2c1O/9bTj1gXAnVdMH9FoK6ujsFgWFlZYV2IlIpJZAzoqa9IkcO6kObG9Te7H/8J6yqgrgvmrwikpqZaWVk1W+IAapT2qbynqTR2s1obq38qqmZzeFgXAnVRMDJEAHb+ti49t9zLTYjO35o7f045EM9ufpho6XfsgK8RQfATk0kEQ01aVkGltbEs7y0CSS2YvyIA87cVHC4v90u1uYGKwGfglb5//CDyuYKOgdoPC8uRKOU/ZXKHWRmppTPKYf5CmID5KwLJycne3t5YVyFRa9asSUlJ6faNsbFxt27dWtyhLqug0lCTJkcSvJmKVlXXALzRzAtp/xso8pU9rehq6Qw4EQ7CBsxfYaEompKSYm9vj3UhEqWmpnbv3r1mB2k0WmMWN/4lrQi1NFIV5lpIVWUNiqepqAjR0/BLloaq917miOHEENQ2mL/C+vTpk7KysqqqUBHT6Tg5Of18sKamJiUlJSUlpfGIhYXFmOnL9Sx6CXMtpKq6BgG6ysrimLCsRCUz6zliODEEtQ2OfxBW1+z85W9v0QplZeV9+/alpqZaO/SXF6LzAQDAq6lionhFwLiye9kMr5EjRnnNXL77UlKZSEYtkOUIDXD8A4QR2P4VVpfKXx6Pl5aW9vr164SEBCUlpRZXL8Pj8bNnz96+fTt/o08uDxFupV2kurKaC9hRawffB/Jaelrk2s8P7l7/N/job/+LCJtvI2SPMImA5/IQ4c4BQQKC7V9hyXb+8ni81NTU0NDQxYsX9+3bV1lZ2cfHJyoqytTUtFevFnoV3NzcEhISTpw40bjLMpGI53CFCTi0gaxtbdOjj++eqKySok8fc4uL34UvdlTIu7Fi4eF0YZuubC6PRIC/BRA2YPtXWElJSbt27cK6CpFBECQ9PZ3fwn39+nVKSoqenp6Tk5Ozs/OECRMcHR1pNBr/kTweLyoqqvGJdDp9z549Tbd94yOTCMKtsUAwnnM+cU6TA3ia1cS/T6U9dd7y/PL1rBVrLYU4OWBzEGHGZkCQMGD+CqW6uvrLly9mZmZYFyKUoqKiyMhIfuYmJydra2s7Ozs7OTmNHz/e0dFRSUmpxWc13oKjUChBQUErV65UUFD4+WHKVLIYVjonWvRy0MAlf2bkASBU/lbUsJSoUr1fNSTDYP4KJSUlxdbWFo/vlB9gp06dumnTJnNz8+Tk5Fu3bjk7O48dO9bJyUlZWbk9T3dycsLj8ZMnT969e7eBgcGvHmZhqHr2/juhCuXVfilkUgy1FZscqy8rY6I4I5WW3xvaL4NRbmnYtcauQNID5q9QOnXnr7Oz88KFCx8+fDhs2LBhw4Z19OlKSkqJiYk9e7axjbGJrnJhWS2rgStPFug/G8I4PLT7ksf0pZGv9rt9S2Du+9Nnopl47d4DBN/BPjExcf369R8/M/W01fNf6NNoNCUlpcY/m32pqKjY9hkhqKNQSAhz5849cuQI1lUIiMvl2tvbnz9/XtwXmrb1TnLWF0GfzftyzY9OxBE1Xfy3hly6efPq6d0LBhnI4fBqgw+mcYQqLDY2Vk6B1ubviJaWVkNDg1BXgqCWwPwViouLy5MnT7CuQnAvX77U1dWtqKgQ61W2hb64FJ0hxAlqkkJmu2jLNc6/wJE0HKYeeFrGE7Kw+gaO47QDlpZt9CCvWbNGyAtBUIvg/puCQxBESUmpqKioU384XbBgAQ6HCw4OFt8lrj/+kJDxZducfkKdpaEkPeFNxmcmStWxcHS21hLBTbPX6UWHriUeXNjHx8cnMjKyxcfgcLisrCwTE+laPB6SEVi/AXRi6enppqamWFchrIqKCl1d3ZcvX4rvEpVM1qCllyqZLPFdQjB/hjy58PA9iqIcDicgIKDFXxB3d3esy4RkVqe8cS8lOvXNt0YqKip//fVXQEAAjyeuabjKVPKAnvq3n2WL6fyCqahhPX1bMLqvCQCASCQePXr0wIEDBELzscCvX7/29va+d+8egsBpcpCIwfwVnGzkLwBg6tSpampqhw8fFt8lJgy0uBr3AZWmzq6bTz96OBrSmuyKtHTp0ps3bzZOMAEA6Ovr5+fnDx8+fP369SYmJlu2bCkoKMCiWEg2wfwVnMzkLwAgODh427ZthYWFYjp/DxMNBTniq/dFYjp/RyEIei3ug7e7RbPjI0eOfPbsmbGxMf/L2bNnq6iozJ07Nz4+/saNG8XFxT179hwzZsytW7fE93EB6jpg/gpOlvY8trCwWLhw4dKlS8V3iUmeliG33yKIVDSBI15kqynJt7jtha2t7cuXL/v06UMgEObM+T7x2d7e/siRI3l5ed7e3rt27aLT6evXr8/NzZVg1ZCsgfkroLKyMiaT2dhQkgF//PFHcnLy3bt3xXT+MX1N8DjcxegMMZ2//b5U1B26mvjHdNdfPUBLSysmJubo0aOGhobNvkWhUPz8/J4+fXr//v2amhpnZ+fhw4dfvXqVw4GLCEMdh/UNwM4qKipqwIABWFchYg8ePDAxMamrqxPT+RnF1Z7LL+cVV4vp/O205GD0iZspIjkVi8U6f/78wIEDdXR01qxZ8+HDB5GcFuoiYPtXQLLU+dtoyJAhLi4u27ZtE9P5DbVos0fabgl9gWJ3I+72s+yyqnr/kTYiORuZTPb19Y2JiYmLi0MQpH///h4eHuHh4Q0Nwiz5BnUVMH8FJJP5CwDYv39/SEjI+/fvxXT+yZ6WKIoev5nS9kNFp6KiIi4uDgCQlV9x8MqbDX59iKJe89fCwmLPnj0MBmPBggWnTp0yNDQMDAwU348Rkg0wfwUkq/mro6OzYcOGBQsWiOn8OBxud4Bb9BtGyK23YrrEz4qKinx8fF4mf1h0MHqNby8LsS14Jicn5+Pj8+DBgxcvXigoKHh6eg4YMODs2bP19fViuiLUqcH5x4LgcDgqKiplZWXy8vJY1yJ6CIK4urouWrRo5syZYrpEeTUrYN/DIc7Gc8f0ENMlmpk17/cHLzLOnPpnsDNdMlcEAHC53IiIiBMnTrx8+XLKlClz585tc7k4qEuB7V9BpKen0+l0mQxfAAAejz9+/HhQUFB5ucjXTf9KTUn+2IohD19/OiGRjojMvAqGfG/W57cqoEQCl2tEJBLHjRsXERGRmJiooaExevTo3r17//PPP7W1tZIsA5JasP0riHPnzkVERISFhUn6wrxPcZee5Ks6jhtu3fqSPw2ZUVfj67oPH+WgLuBb7JIlS+rr60NCQgR7enuUV7OWH45RopD/nOGqo0YVxyV4CHL+wft/H7wPmuqSnxpz9OjR58+f43Di2Mm+bQiC3Lt3LyQk5NGjRz4+PnPnzm3cQwTqojAdfdFZrVy5cufOnRhcuPbceAqO1G9PFrf1x7EeLjAiqnidK2/y1IxrG3xHDB2x+AKjXcs2VlVV6evrP336VJh6W8fj8erqWf9EvB28/PL1R6IfuZVdWDlzx90F+x4WltagKIogSJ8+fU6fPi3yC3VUYWHh9u3bu3Xr5uDgEBwcXFVVhXVFEDZkPX+5ObEX/j13911NG49jZUSeP3fzTWn7VpQdMmTInTt3hK+uw9qZvw0vg2xICoMP5/NfDqcges9EayU8DgBActmW1kZ4N7p48WKPHj04HOEWOf+1FStWrFq1CkXRrIKK6dvu/L4/8n1umUjOXMVknbydMnj55auxmU2Pv379WldXV0ryDkGQBw8e+Pj4qKio+Pv7P3v2DOuKIEmT9fxtZ2B1sL2opaVVUFAg8mLb1r6Xw03f2Zv0LWh5xRcm65BIOv2Xnto8goLrSP6iKDp8+PA9e/YIWXWLjh49amlpWV7+9UfO5fHOP0gbveb6jO13bz7Nqm8QMPTffizZdOrZwCUX1598wm/2NjN37tzly5cLXrcYfPnyZc+ePRYWFra2tgcPHmz8mUAyD+YvinawvVhYWKihoSG+klvz9eXsfvs2bI1X3+50ff1utm6T1l1+X9vkQbyC4CEKpO6rnzegKIryckPm+e6JKeSitee9qB3N348fP2poaOTm5or2ddy9e1dHR+fjx4/NjvN4yKPkvCUHoz2XX94bHh/9htFihjZTW89+k1l8/kHa1K0R4/64EXrvXUV1/a8eXFJSoqWl9e7dO2FfgxjExsb6+vqqqKhMmzYtLi4O63IgsYP7bwIAeDnRsZmgxxQPHTwAyJew6U4zrwLXhSc3ZS7a9POmCNiP/C2/u2jMJ/ww/4Agjfr0myeOb/d9zsC9Ou2tzb/VVhUTFc/RnuhhLwcAAHijOcfPAwAAqBPgUiYmJkuXLl28ePF///0nqvJTUlJmzJhx48aNnzeVwONxA3oaDOhpUFjKvPMi578nWbsZ5VwuYmmkZmmkpqmsQJYjkEkELg9p4PBq6zlZBZXpueVfKutM9VWsjNQWjXdwtdZp/faahobG+vXrlyxZ0rjhRW5xNZVM0lBRENULFJi7u7u7u3t5efm///67cOFCHo83Z86cmTNnamhoYF0aJBZdJH/R+vfhQRsP3UzIrcarmrr8tnjT2glWlK/fRIqjo5OB2WJPUwIAALBqlTy2P9gbOFD5ovfiFs6Fef5y0l8ju148WG0jBwAAc0ao9XfdFL7rxCrv9bYAAFD3NOoZU8nNs6+IRsetXr3azs7uv//+GzdunPBn+/z585gxYw4dOtS3b99WHqanoThn9NehwaVV9RmM8gxGRX5JDZuDsLk8IgEnRyIokEl9bfX8R9p201Ui4DswzGPBggUhISFXr1719vYGADxJKTDUormpGAjzukRITU1t6dKlS5cuffbsWUhIiLm5+dChQ+fNm+fh4YHVyA1IXLBugIsZ/wN794HuxsaD5m8+ePTIrqXDTORxJKMZV4q+deuWn/NWIRrMu9f8I+svPq9PmTIlNDRUItX/pPbceAoOpzj6ZPH3Pmnu+x2uJBzZ4xD/y4ZHy8yI1BEnin7qtRak/4EvJibGyMiIyWQKUTqKoiiTyXR0dNy2bZuQ5xFeXFwcnU4X30pDIlRZWXnkyBF7e3tTU9MdO3Z8/vwZ64ogkekS8y846a+RBbfvHduwJGDhmgM3r691JuSF7zqRxv8uv73Yr93tRczbvwQjG1sVfJMvTY0pgJefAwAAgPs+Mi4Xbz/IQ0OE/7QDBw50d3fftGmTMCdBEMTX19fOzu7PP/8UVWECc3Nz69Onz65du7AupG3KysoLFy5MTEwMDw/Pycmxtrb28vK6e/cu3A9JBnSJ/MVRB8706/5tnxk5m4nj7Yict7GxAAAA2AlRj0vIrp7u7Rr/z2KxcnJyunfvLq5a2wGnpKzSdJcyPJVKwaG1TAAA4OVFxaYBq0Ee9Ob7mAlp3759Z8+efftW8EUbVqxYwWQyjx8/LsKqhLF3797g4OCcnBysC2kvZ2fnEydOMBiMkSNHbty4sVu3blu2bMnPz8e6LkhwXSJ/W2swdrC9+O7dOwsLCzk5ubYfKj5cLveHrzkcDgBkMgAAKYuOecMzGOBhK+qOfU1Nza1btwYEBKACTZg8cuTI/fv3r169SiKRRFyZoPT19QMDAwMDA7EupGMUFRXnzJnz6tWrmzdvfvnyxc7ObvTo0Tdv3oT7IXVGXSJ/W2kwdrS9iHnnAwAA+Zyf3ySAkarPRTUoXksXAFD7KOp5vVp/z15kMVx37ty5KIqePHmyo0+8c+fO9u3bIyIiVFRUxFCX4FasWJGamvrgwQOsCxGEnZ3d4cOH8/LyfHx89uzZQ6fT161b9+nTJ6zrgjqgS+TvrxuMHW4vSkP+8oofPXz9fXnvqrhHSRy8noMLAA0vo55UUXt7uLW+OISAcDjcsWPH1q1bV1LSgVVskpOT/fz8rl+/3q1bN3FUJQw5ObkDBw4sWbKk8+4eRKFQZs6c+eTJkwcPHtTW1vbq1WvYsGFXrlzpvK+oS+kS+fvrBmOH24sY5y+KIAjAK5VfDVx58V0FDyBVaedXbb5RSrSZOrM/YCc9jCsiOHoMarK8LY9xc9vvAQEBAQEBS0NT2ABhRGxbGBAQEBDw+847nzt6/Z49e06fPn3lypXtfHxBQcGYMWOCg4NdXX+52Rq2Ro0aZWZmdvDgQRGdryEz6sL5W4llEr83Zm1tvX///vz8fD8/vyNHjhgaGvL3Q5J0HVCHYD0AQ8xqz42n4ADRasUTVuOx8ouTNfEE+oJIlPUwwJCoNPZ0acvPbWG8lqqqaklJibir/qXykBFkHHn437d3DDMgE+UUyEQcDkcx8zqcyERR7vvtLiSS06aUplN3OW/W9Wy5x5XktCVVgBKYTKaRkVFMTEybj6ypqXFwcNi1a5cAV5GkDx8+aGhoFBYWiuBcP0xk5xU9/t+8wTZ6NDkCSUHDvP+0bXc/iWstjeYyMzNXrVqlra09aNCgCxcusFistp8DSZys5y/z7Dh5HF5Ny9hlUXhqORflVb47N9taHifX848XrIYXq7uTyAMPfGoyVJab+9/WhfPnz58/f/6coWYkHEGnj++8+fPnz5+/cMepV9l6enrYvZgf1Oa/ibxx+eqt2NQvDfwjXMazK2FXn+V3eHhvR12/ft3KyqqhoaGVx3C53FGjRvG7jKXf2rVrp0+fLvx5mk5kZz7+04mGw1GM+oz3mzt7koeFMh5Htph/80v71ngSCTabffny5SFDhmhqai5btiwtLU1y14baQdbzt7UGY4fbi76Hro0YMQKz1yJNxo4d2/o0ikWLFg0ZMkR8a6eJFpPJNDQ0FHqxzSYLH3HT/xpAwcvbrYj5tphObeJON2U8qfvqZ629b4lJdnb2n3/+qaen169fvzNnznSKiSddgaznbxM/NRg73F7csmVLUFCQ2ArsTHJzczU0NH5eQIfv4MGDNjY2UrLMYzuFhYU5ODjweL9undakXt7kN7xX9276evrG1r1Hz98Xyfjh7aXJwkfc1K29SHiV3840maiI1tyapU8gmCyOFduLaAOXy71x48aoUaPU1dV///335ORkrCqB+LpQ/grP29s7LCwM6yqkxe7du1v8NHDz5k19ff1Pnz5JviQhubu7Hzt2rOXvcd4d8FTHEzRc/DbsCz4evDtwtDkFL2fx+72K749pMpG99OQoBZyc276cH+K84sxYKo7kukOcL6Jd8vLyNm3aZGRk5OLiEhISUlPT9iJzkDjA/O0AMzMz2IPWiMPh2NraXrp0qenBhIQETU3NV69eYVWVMJKTk7W1tcvKWlgDnhX9uzEBrzr+TOOyGpzkDY4kHHVkSOOR2lv+ukS1SRerUZSTuN6OhFf1vfrjmiKsmMUmBIK+tPSJ83i8O3fujB8/Xk1Nbd68efHx8VhX1OV0ifFnIsFkMj9//mxhYYF1IdKCSCQeO3YsMDCwpqaGfyQ/P3/cuHEnTpzo1asXtrUJpmfPnj4+PuvXr//5W+S+W+JS3zw68G2NTwCIFr3s1HENOZk5X4c2Np3IjlRXMVEclUb7cbkygiKNikdqa8T7MtoNj8ePGDHi2rVr7969MzY2njRpkqOj49GjR6urq7EurauA+dteb9++tba2JhBEvK5Cp9avX79hw4atW7cOAFBTUzNq1Khly5b99ttvWNcluC1btly9ejU5Obn5N8hqRlZW6uWPzh8/sHPjH2tWrQhcfeZN7depPAA0m8iOIiiKAjy++WqRBAIeAOlbN0dHR2ft2rVZWVl79uyJjY2l0+n8/ZCwrkv2dZH1f0VAGma+SaE9e/bY2NhMmzZt48aNffv2XbFiBdYVCUVVVXXr1q2LFy9+9OjRD99gxh+cPuWP/7LZVG06XV9TlSpPqi3nfF8K4+tE9lX8iewEClUBh5bU1f24VgZSy6xHcRSxzE4UHg6HGzx48ODBg0tKSkJDQ/39/Ukk0ty5c6dPn66mpoZ1dbIJtn/bC+Zvi9TU1Hbu3Onl5YWi6OHDh7EuRwRmz55dV1d34cKFJsfYL7b7r/4vz2DameTCz1mpr58/jou5u224euOvT7OJ7HgDfW08WlVQUPlDW5edl1fEI+hIy0Lvv6Kpqbly5cqMjIzg4OD4+HhTU1P+fkhY1yWDYP62F8zfX/Hz8wsPD7906ZJsdM7g8fjDhw+vWbOGyWR+PcTLjo7OZJN6B2ydZk37egypyGVUNKZrs4nseA0nRxMCJ/XVq/omZ2548zKpDqdu7yyZFyI8Nze3c+fOZWdnu7i4LFq0yMrKau/evR1a/QNqHczfdkFRNDU1tWfPnlgXIqX69etHo9Haflwn0bt3b09Pz23btn07gCAIwOGoNFrj7wsr+fg/j+pRFOHx0BYWPpJz8h5jTvhyKyQs91tGI8X/HbuSg+qN8vGQ5GsRnqqq6pIlS96+fXv69Om0tDRLS8tJkyZFRkaiAq1ECv0A2+EXnUVmZqaxsTHWVUCSU1RUpKGhkZGRgaIoitbfm29IwCsP2Pj4CwflVrz/b8toC9sRQy2IOKrnoRxuSxPZeflnvXUIeJqNz4YTl25cObV9hqMqHq8+PPiD2OeHi1dVVVVwcLCDg4OJicn27dvhfkjCgPnbLpcvXx43bhzWVUAStW/fvsYJJtzcS3NsaHgcjkiWJxEIKj2mh6SUP15tK4/D4Uk01xE9f5rIjqJoxbN9Xpa0r4MgcHiq6ejtsaUSXP1BzOLj4+fNm6eqqvrbb79FRES0NnUQ+gUcCj9EtMP69evxePzmzZuxLgSSHA6HY2dnt3v37jFjxgAAALck7emL9yVcqoFdHxcTZTwAvPK0uEdplSQqqaaKQx8wro/+Tx3gvKrs1y/eFtSTdW1dXcxUZaGD/EdMJjM8PDwkJKSoqGjWrFmzZs0yNDTEuqhOA+Zvu4wdO9bPz8/LywvrQiCJioyMDAgIePfuHZksjh1FZEpKSsqJEyfCwsJ69+49b968UaNGEYlweGsbYP5uPZRuAAAgAElEQVS2C51Oj46ONjU1xboQSNK8vb0dHR2lYc/mTqG+vv7y5cshISHZ2dl+fn5z5841NjbGuijpBfO3bRUVFcbGxpWVlThc8/lMkMzLzc11dnZ+8+YN/FjdIe/fvw8JCTl37py9vf28efPGjRsnPVuvSg84/qxtKSkpPXr0gOHbNdHp9EWLFrV/yyWIr3v37n///XdeXp6/v39wcLChoeHq1avhfkjNwPxtG5x50cWtWbPm1atXMTExWBfS+ZDJ5ClTpkRHRz958gSPx7u5ufH3Q2poaGj7yV0AzN+2wfzt4uTl5f/+++8lS5Y030cbajczM7Ndu3YxGIxFixaFhoYaGBgsX748LS0N67owBvO3bTB/ofHjx+vq6gYHB2NdSOdGIpG8vb3v378fHx+vqKg4dOhQ/n5I9fX1bT9ZFsH7b23g8XhKSkolJSUUCgXrWiAspaenu7m5vXv3TlNTE+taZASPx4uIiAgJCXn27NnkyZPnzZvX1Ro6sP3bhvT0dAMDAxi+kJWV1YwZM9auXYt1IbKDQCCMHTv21q1b/J1Hxo4dy98P6fvKR7IO5m8bYOcD1Gjjxo13796Nj4/HuhBZY2BgsGHDhpycnC1btty9e9fIyIi/HxLWdYkdzN82wPyFGtFotJ07dy5atAj22okDHo8fPnz4tWvX0tLSTExMpkyZ4uDgEBwcXFVVhXVp4gLztw0wf6Gmpk+fTiAQzpw5g3UhskxHRycoKOjDhw979+599OiRsbGxn5+fTO6HBO+/tUFXV/fVq1dw7hPU6M2bN6NHj37//r2ysjLWtXQJpaWloaGhISEhRCJxzpw5M2bMkJn9kGD+tubLly/du3cvKyvDuhBIusyfP59Coezfvx/rQrqWR48ehYSE3L59e+TIkXPnzh04cCDWFQkL5m9rHj58uHPnzujoaKwLgaRLaWmpjY1NdHS0jY0N1rV0ORUVFf/++29ISAibzZ4zZ46fn1/nHREI+39bAzt/oRZpaGhs2LBhyZIlWBfSFTXuhxQaGpqenm5paTlx4sSHDx92xqYkzN/WwPyFfiUgIKC0tPTKlStYF9J19e7d+59//vn06ZOHh0dQUJCZmdmOHTs+f/6MdV0dIF35y2AwsC7hBzB/oV8hEAiHDh1auXJlXV0d1rV0aUpKSgEBAQkJCZcuXWIwGLa2tvz9kBAEafvJWJOi/t+PHz/27dv3+vXrffv2xboWAABgs9kqKioVFRVw7wPoV3x9fc3MzLZs2YJ1IdBXtbW1/P2QCgsLZ82aNXv2bGkevCRF7V9TU9Nz586NHz9eSgb6vXv3ztTUFIYv1Iq//vrr6NGjOTk5WBcCfUWlUmfPnv3ixYuIiIiysjIHB4dRo0bduHFDOteuk6L8BQAMGTJEeiIYdj5AbdLX11+xYsXy5cuxLgRqrkePHocOHcrLy5s8efK+ffvodPru3buxLqo56cpfIE0RDPMXao/AwMC0tLT79+9jXQjUAgUFhePHj587dy4yMtLc3BzrcpqTuvwFUhPBMH+h9pCTkztw4MDSpUs5HA7/SG5u7r59+7CtCmpUWlrKYrG6d+8uhfuXS2P+AumIYJi/UDuNHDnS3Nz8wIEDbDZ7+/bt1tbWO3bswLoo6CsSidT41ihtpGj8w88ePnw4bdo0TEZE5OfnOzs7FxUVSfi6UCf18eNHR0dHdXX1xntxHz58MDMzw7YqCADg6Oj4zz//ODg4YF1IC6S0/cuHYSsYNn6h9svLy1u9enV1dXXTgRAvX77EsCSokTS3f6U6fwF2EZycnGxvby/JK0KdEYfD2bVrV/fu3a9du9bsW69evcKkJKgZmL9CwSSCYfsXao/i4uKzZ8/W1tb+/C2Yv1IC5q+wGiP46dOnkrkizF+oPQwMDJ49e9biQohJSUlS+2vfpcD8FQF+BHt5eUkgguvq6vLy8iwtLcV9IUgGqKio3L9/f+rUqc2Os1is5ORkTEqCmoL5KxoSi+DU1FQrKysikSjWq0AyQ05O7ty5c+vWrWt2HHZBSAOYvyIjmQhOSkqCnQ9QR23duvXkyZNN37Zh/koDmL+iJIEIhp2/kGBmz54dERFBo9H4X8IhaNKASCTC/BUlcUcwzF9IYEOHDn3y5Im+vj4AICMjo7q6GuuKujrY/hU98UUwiqJv376F+QsJrGfPni9fvrSzs0NRND4+HutyujqYv2IhpgjOyclRVlZWVVUV4TmhrkZfX//x48dDhw6FXRCYI5FI0rn4LwCgc9/ib4zga9eu9evXj3+QxWItWbLk8OHDcnJyApwTdj5Ardsb/tp/pI26kkLrD6PRaBEREREREc2Ol1ez3ueWZeRVfKmoa2Dz2FweHoeTIxEUyES6tpIVXc3cQEVernP/YkoVaW7/dvp/5mYRzGKxfvvtt/v37zs6OgYEBAhwQjjzGGpdb2tdCpnUnkcSicRx48YBAEor6yNeZCd9KElnlLM5PEsjVSsjNTN9FTkSgUwi8BCUzeHVN3Az8yr+e5r1qahaX13Riq7Wr4eeh4MRkdiJP6RKA2nOX6le/6z9+CulhYWF7dmzh78StpGR0YcPHwRoAo8fP37q1KkTJkwQQ5mdXENm1NX4uu7DRzmow0hop/j0oiuxmfHpxYOdjXpb61oZqelpKLb+FC4XySqsfJ9b9uBVbs7nqrH9TL3czHXUqZIpWPasWbNGXV199erVWBfSElRW3L59m0KhNH1pR48eFeA83bp1y8zMFHl5MoD1cIERUcXrXDmKoiiv6PH/5g220aPJEUgKGub9p227+4mDdYVS5b8nWd7r/pu06fblmAxmPVuwk+R8rtoXHu+57NKy/8Vk5pWLtsIu4s8//9y2bRvWVbRMRtq/jd0OTQ8K0ASurq7W19evqqrC42ELrxn2q7WO/Q/q7v9w/3f9+ifr3EfueMMz7D3Mw1at/uPje7EfWGbzLj8JHqMJf3BFZbVbz75g1nMCJzramWkJf0IWm3v7WfbxmykTB1n6j7QhEuDPuAM2b96MouimTZuwLqQFsvAP2WL4AgAYDMapU6c6dKqUlBRbW1sYvi3g5UTHZoIeAz108LyMo3/sT+T0DIxIenbt9ImT4VGJsdsHyGedWrP3JRvrOjGFoujVuMzp2++6dNc5FTRUJOELAJCXI04YaHF+/cjUnFK/Hfcy8ypEctouQpr7f2UhaAICAn61++HOnTvZ7A5EQlJSkq1tj7RPZc9SC2MT8x7Ef4p+w3j6tiDpw5eaOhmOFua7K5v9R7hYmxjoG3Sz6TMm4O+ovB9H7CDF0dHJwGygpymBl3750guW0vDlq92+DdKj2C9a5a2LZF4Jey7DP6U21Ddwl/4v5taz7BOrhswcbkMQ9bu4lirl4JJBkzwtFx2IuhSTIdqTyzBpzt9OP/4BAHD06FF7e/vdu3f/vF0Qvwnc+kAIFEVTc8re5ZSmM8rfFmjncR23n32priwvRyLIEQlcHtLA4THr2R8LKpWpZCu6mqWRWne6mqOFNplEEOfLkhhu2sHf3ANjcc7TFy7y11eoybhz8tiqkTHZN18eHqby7UFVMVHxHO2JHvZyoPLFi1QusdcAd40mAaPY381J/vTdV8+ygbsVFq8CY/UN3GWHYgw0afsXDxR58jY1pq+ps6X2gr+juDzUd3BX/FF3FMxf8VJQUFi2bNn8+fOPHz/+cwrv3Llz1qxZLfYCV9U23H6WfTXuA4mAtzfXsjPTnORhaaavQiK2EKwoijK+1KTnlmcwys/cfbfhn2ej+5p4uZkbatHE9cIko+Fx8IHYCuWxp27+M1MbDwAAc4crujpvPfO/K+uHzOEfAXVPo54xldw8+8oDbnpuPhdHNTDW+SFlFOh0bTySn/MJgC4XCo3hu26GKw6HE/fldNUVj60YHLAvEqCo75Du4r5cZwfzVxJ+lcItNoHTc8vDo9PjkvLd7Aw2+ffpaarZ5vlxOBxdW4murTTMxRgAUFDKvBb3Yfbu++YGqhMHWbjbG4rjRUkCue+WuNS51RRT7W95SrToZaeOS8nJzOECbTkAAGAnRD0uIbt6ulMB4FZXMVEclUb7MWcIijQqHimvqZF0/ViTcPjy6ahRj68cErD3IQrAVBjBrYL5KzktpnDTJjCrgXv4elL0G4bvYKtlPk4qimTBLqSvobjY2yFgXM+oBEbIrbeXYzPXTe/dOQdpktWMrKifk6LO381kFH6prGvgNOS+qQVAsfE/Lfd9ZFwu3n6ehwYeABRBURTg8c2ThkDAA4AgsjCcpkN2/PtSV50qyfDl01alHFs5ZM7uB8Y6Sv166Evy0p2LNOevLNx/+xk/hbOzs/fv36+jo9M4EOJNZvHkLRE1dezwjaOmDbUWOHwbkYiE4a7dQv8c7mypM3373WuPPoiifAljxh8cb2PmONpv5e5/rj549OJ1Yuqnck6THOXlRcWmAatBHnQCAIBAoSrgUFZd3Y9Ji9Qy61EcRZECupK4pLx3n8qCprpIOHz5tFUpm/z77Pj3pUzfHBYWzF9sNE3h06dP7zr3fP3JpysmOW2e1VeJKmzyNkXA4/1G2BxfOeS/Jx9/3x9VWlUvwpOLG/vFdv/V/+UZTDuTXPg5K/X188dxMXe3DW8yww0pi455wzMY4GFLBAAAvIG+Nh6tKiioRH44T15eEY+gY2Ag4foxVF3bsOt8/IaZvTFcrsHJUtvd3vDviwlYFSD9YP5iSUFBYdGiJX2mbGUUloVvGj2gp7gCwkRP+VTQ0J6mGvP/elha2VkimJcdHZ3JJvUO2DrN+tuNRKQil1HxPVxrH0U9r1fr79mL/56F13ByNCFwUl+9avoaG968TKrDqds7W0iudqztDX/t6WRkby6aQb4CW+ztkJj15UlKAbZlSC2Yv1jicpG1Jx4TSOT/BY6kUQRZEa39CHj8/LF2Y/ubzt/baSIYQRCAw1FptMb/Cqzk4/88qkdRhMdDAQANL6OeVFF7e7h9W7ZAzsl7jDnhy62QsNxvIY0U/3fsSg6qN8rHo6v0PyRkFKd8LF00HvulmhTIxPUzeu86/4rLRdp+dNcD8xcz/PBFULB7/gCJrSM1c7hN54lggkkvJx0859nZ/z0p4QJeZfrNrT6Tr2gMMCcixWmpn3mAnfQwrojg6DHo+4LIci5L147VqrwTOGryxpDL/109vcN/ZMDFzypD/gga1hlvQArkUkzGjGHW8mSpuIPtZKltoEWLScrDuhBpJM35Kzvr77Rowz9PAw/Hcjg8yV/6zN3UCetv1jdI/aI03NxLc2xoeByOSJYnEQgqPaaHpJQ/Xm0rj8PhSUqDVm93IZGcNqU0ex0Vz/Z5WdK+DoLA4ammo7fHlmLwY8bGl4paj6WXagVdVUccHsZ/mvfXA6yrkEaRkZGenp5YV9EyqXj3FpOYxLzU7NLzG0ZisoLqzOE2WfmVwdeTAic5S/7qHUAw8glJGrj86Yv3JVyqgV0fFxNlPAA74hKGPUqrlDc2Us51sNIbYN3sf4pKn8Cr72Znv37xtqCerGvr6mKmKhuzAdvlxuOPQ13oFPl2rQIsGQMdDPddTMgurDLRU8a6Fukize1fGVn/7GeVzIYpmyN2zR9gZ9b23AoxqaptmLI5Ysfc/pjfooFEiIcgY4NuHFzqYaav0vajJej4zeSqWvbqKb2wLkS6PH/+fMWKFc+ePcO6kBbIbP/vX2HxQ3rRMQxfAIAylbzG12VL6AsWW0q3n4IE8Cbzi4YKRdrCFwAwrr/Z/ZefsK5C6khz+1c28/dxSn56bvnC37Dfxs3d3sDGWP34zRSsC4FE5v2nMmzf139FR42qQCbml3S5KeCtg/kraaH30hZ5O0jJJobLJjr+9+Qjs15K/wdAAIAO/X6mMyosDYXdHpv18ebWae6W2opyBCJZxcBu6LwDsZ95Qp4UAEsjtQwGXB34BzB/JSqroPJzKdPNTlpmxKsrKbh217nzIhvrQqBfevHihb6+/uzZsy9fvlxZWdn6g9MZ5VZ0NWEux00/7jPAe2NYItdiyGR/f5++Gp9jTwaOHLIqukqY0wIAutPV3ueWCXkSGQPzV6KuxmX+NsBcrGuwdtSEgRZXYzvj0hBdhaKiYmFh4alTpyZOnKipqTlgwIAdO3YkJib+fHe6lsUpqawz1lES4moV17dsuFOs5PnXk7ePr589GXLuTkL8yfE67LSQv68UCzeFwspILZ1RLtQpZA6RSIT5KyF1LM6DV7m/DTDFupAfOFlqIyia+OEL1oVALVNU/L4nMZfLffLkyZ9//uno6Kinp+fn53fx4sWKiq8f6rPyK0z1VYR6d+eVsHXcR48PXL+w57fJggT6hCkDlXCsrPRs4e7UWhmpwd2JmpHm9q9U9JCK0MPXDCdLbU0VqZsF6+1ufuNxlgMciCaVmuZvU0VFRaGhoaGhoQQCwdXVdcSIEdqmjipUBaEuRrCY+velqc0O1tcw2ShOVV1NuFHUKork6lq4FtoPYP5KTtKHL71tdLGuogW9rXXDo+CeXWLB5XJra2vr6uo69GfTL5lMZuuX4PF4qampNjY2Svo2ZLmWw1oIDUlHT0TXU/v5jDcTLn+JRDyKAh6CSFX/G7Zg/kpOOqPcZ5A0LsFlpK1UUcOqqWOLew2gTqShoaGd+dj6nzwej0qlUiiU1v/U09Pj//3nbykoKGhra7dYJA6HGzhwoL+/v7e3N4VCufsyp+RtoUh/DNzcywsnb39F6r/j74WWwk8iJBHxHC5CkIP5+xWJROJypXQAvkzlL5vDyyupEdPA+LrM67s3h7yoMPM7fmCKYYf/c+PxODMD1QxGubOVjjjKkxgURevr6wVIyWYPrqurIxAILWZl0y8VFRW1tLRaCVYqldri5n4dRaFQ6urqmh4xMjLy8/Pz8/Pr1q1b40EiAc/hiXCZsZrEYH+fwBvlDqsvXVrlIC+CM3K4CJEAw/c72P6VkKyCSiMtmpzItyXmFsbsX75o25X31QhKcnFjCjhj28pINR27/OXxeB3Kx1/9yWKx5OXl22xsqqmpGRgYtNjYbPyTQJCiJSMUFRX5+SsvL+/l5eXv7+/h4YH/6VM8mURoYAs/ThcAAAD30/UVPrMOv1UZ+/eDs0ucRbGPK5eL4HAA5m9TMH8lJCOv3MpIqIGZLUC+hE13mnkVuC48uSlz0aZIwc9kRVd7mVbU9uN+xGazBf5g3vTBPB6PQqG00ork/0VHR6f1YKVQKJjstSNuNBqNTqfPmjVr8uTJKiq//AhFo8hV1TaI4HrsrLMzhs69XGG//Oq13aP0RfROVFXXoAg7uH5EIBAQBEFRVAr/38pU/haX1+mqi/zeCKtWyWP7g72BA5Uvei8W5kR66opvk+LPnv3Y/oZnXV0dDodrvRXJ/1NDQ6OVT/FUKpVMFuWWS7InOjrayMiozYeZ66t8LKhEEPTnDUg7ACm4tnDU/KusQbvvX1zpIsL1yjIYFRYGUrcwBeb4TWCR9FOJlkzlbwOHp6oo6leEN5pz/DwAAIC6Nh7ZFjkSoSA7LbKa1ZiPKioq+vr6rQcrkShT/0ZSqz3hCwBQpMip0uQZxdXGugLHJi839PcFZ/KsVtwTbfgC/tw8kX8E7Pxg/koCm8MTfeev6JBJBIve485uGIV1IZBQLI1U0xnlgucv+8nf2yNKcLrWxRfWBFz44VtEU++NK4ZoCt57m55bPti5XW8kXYrUdgHLVP7i8ThEilczRhAUL309UFBHWRmpZeRVDHft1vZDW8Rl5OZzUW5ebOjx2GbfIvUzXR44RIi11dIZ5Yu8sN+STtrA/JUEOSKBzRHRvWkxaJDu5jnUTt3p6iG33wr+fMr0G6zpoivnu9Kq+po6tqGWKAZSyBapzV+ZGqeiQCbWNUjjT5mvvoErLwfzt9NzttQuKKn5VFSNdSHN3XzycbATXQrv8mMO5q8kGOsoZRcKu4Kf+GQXVhrrwL25Oj0iET+2n+m1uEysC/kBgqDXHn+QzsmfmIP5KwlSvvheOqPcEt6blgnj3czuvMiRqm2lHqcUaKlQLIReGF4mwfyVBAMtWm09p5IpiuHxYpDOKLeiw18PWaCrrtjDRPNBfC7WhXx3JTbT290c6yqklNTmr0zdfwMAWBiqZjDKXa1FtgQaj3Fz5+47+TwAAC8nhQ0QRsS2hXk0HAAE+th1a0e290KsBm5hWa2pLhwbLyMmelj8fTFhuIuxNNxTfZdT+iG/Yt/v7lgXIqVg/kqIlZFa2qcyEeYvWhZ/OeR4yvd/u6LnF048BwAAkpP+wvbnb0ZehYmuMpEoUx84urI+NnrddLNCbr/9fTzG473YHN6m089XTnaWhncC6SS1+StrcdC/p75oPxUSHbYms9GWsF+vt2n/ee7Hf+rXQ0+EhUGYWzO1180nH9M+Ybzf2rGbKab6KoOd6diWIc1g/kpILysdDpeXnCVdO/3UN3Dvv/z02wDYPSdT1JUUAic5bTnznMPFbNR5anbpnefZa3x7YVVApwDzV3K83C2uSNlml/de5ThYaGmrSt2uSJCQhrkYG2kr7b/0BpOrV9SwFm48sWpKL1WaKFYOll0wfyVnTF+Tp6mFlTUsrAv57mrshwnucGCmbFo/s3dqTun+SwkSvm5FDWve7ruZMSHFGU8kfOlOB+av5NAocoMcDC7FSsvw+ISM4loWx9W6c297Af0KjSJ3ZLln4ocvkozg8mpWwN7IIS6m9yNuLFu2LDs7W2KX7oykNn9lbfwD35zRPaZvvzfEmd5N8EUCRYPF5u749+XSCY5wVminxmQyq6qqqn/UeGTq1KlHlnv+vj/q70sJgROdxF1MeTVrwb5IT2ejeWN6AgDWrVs3ZcqUJ0+ekEgkcV+6k5La/MWhqBSvGCaEq3GZt55l/7NmKLYbwe6/lFBaVb99bn8Ma4AaoSjaepK2eITJZMrLyys1oays3PTLcePGWVhY1NSxlx2KkZcjrpvhKoZ9AL6KTczbfSHeZ5DFrJG2jQfHjBljY2Oza9cuMV20s5s2bdqIESOmTp2KdSHNyWb7FwDg5WYelcA4/zB9xjBrrGpI+VjyID43bCNc8Ff0UBStqalpMzqbfVlbW6ugoPCrGNXV1bWyslJqSXu2qqNR5E6sGnLuwfsZ2+8FjOvp5WYu2g89lcyGv8Li03PLd80fYGf2wyKVp0+fdnBwGDx48ODBg0V4RZkhte1fmc1fHA63bkbvGTvu9bXRNTPAYNZvLYuz5czz1b69VBThxj+tQRCknUna9EhdXR2FQmkxRpWUlPT19a2trZsdVFZWptFoP2+pKUIEPH7mcBs3O4PNZ55HJTACJzmLZDduLg+JfJ174Mqb4S7d1s/sLS/X/NdWQ0MjNDR0xowZiYmJmppCrB8so6Q2f2W2/4HvQfynA5ffHFnuKeGO4FoWZ8nBaEsjtdVTmg/M5PF4UrXvrwghCNKej/PNjtTX11Op1F8l6a+O0Gg0ae5S5yHIxaiMcw/f62koTnA393QyIhEF+Uf/UlF343HWjSdZ+hqKi70depq2lq1//PFHcnLy7du3pfkng4mFCxfa2touXLgQ60Kak/H8BQDcfZnzvyuJRwM9hdiwq2NqWZwlB2PMDVTW+PZq/E1AUTQmJiYkJAQAEBYWJplKBMbj8QRIUhaLpaio2GJotpKkioqKOCQ37tKTfFXHccOt2+g3bciMuhpf1334KAd16R+7w+Uhj1MKrsRmfsivGNPX1NVa18pIVYna9ueh/JKa9Nzy+68+vcn8MszF2Huguale2+1oLpc7YMCASZMmLVu2TBTly46lS5eamJgsXboU60Kak9n+h0YjXLuhKFi4Pyp4uSQiuI7FWXIwxkz/e/h+/vz59OnTp06d+vjxIwBAwj10XC5XgCRls9m/SlJlZWUTE5MWg1VRUdCbTg1PD86Zcdth9/sh1oqtNhMbHh+YNTPM+Uz2GIevR+oyr+/eHPKiwszv+IEphtKVyUQCfpCD4SAHQ0Zx9c2nH0NupXzIr1Cikq2M1KyM1PQ0qCQiQV6OwENQNodX18DNLqxKZ5RnMMopZKIVXb1fD73Ns/pS5Ns7qoFIJIaFhTn36mVu6zRq8ACxvrTORWr7H2Q/fwEAI3t3Q1E0YF9k0FSXgQ6G4rtQVkHlplPPrLupB03thSDInTt3Tp48eefOHS73+0KxTCZTsJNzuVx+PnYoSTkcDo1G+1XbU0tLq8UkpVKpIvqRiBY7OerRZ5Kzx0BlAADgFsbsX75o25X31QhKcnFjSu8nOSNtpUVeDgAAFEUZX2rSc8szGOVP3lY1sLlsLoLH4eRIeHk5orGO0szh1lZGagLPZzM2Ng5YvnHerJmZ799K6z8iBmD+YmxUHxN9DcUtoS+iEhgrpzgrt+MzYIfwECT0XlpYZPoiL/ue+oT169efOXOmoKDg50cymUwOhyNAkvJ4vFaSVEdHp8VP+hSKDE165uVEx2aCHlM8dPAA+RI23WnmVeC68OSmzEWbIrGurX1wOBxdW4murTTMxVhMl9j2x6LCrDeLFy8+deqUmC7R6ZBIpKZtIOnRVfIXAGBvrnVhw8jg60mTN0UETXVxtzcQ1Zk/FlZuPv2cSsZNsKk9tCkgOjq6lV71Dx8+UKnUVm406enptdhhqqCgIKqCpRVa/z48aOOhmwm51XhVU5ffFm9aO8Hq+/sHUhwdnQzMFnuaEgBAWLVKHtsf7A0cqHzRezGGRUuhQ4cOOTk5hYeHT548GetapAJs/0oFeTniDE9jffnqQ1ffnLqTOmGg+RBn+s+jedoJRdGXaUWXYzOTP5YsGNsjL+nuyWPnExISWr+lqaioWFpaKtgVZVz53UVjPuGH+QcEadSn3zxxfLvvcwbu1Wlv7a+9ulUxUfEc7Yke9nIAALzRnOPnAQAA1GFXsZSiUqnh4eHDhg1zdXXt1q0b1uVgj0Qi1dVJ4/+TrpW/Fy5cCAwMjA+FeEIAACAASURBVI+P9xlj8Pxd4eXYzINXEkf17jbezdxYR6n956msYd1+nn017gNVgTTB3WL7nH7yZCIYaLls2bKSkpKHDx/ev3///v37xcXFPz+3trZWdC9IpnDSXyO7XjxYbSMHAABzRqj1d90UvuvEKu/1/IledU+jnjGV3Dz7wrW+2mZvb7927VpfX9/Hjx8TiV3r1/xnsP2Lsby8vICAgDt37nh6ehoaGgIA+vXQ79dDv7CUee3RhwX7InkIwr8rbWmk1p2upqYkTyYR+AMY2Bwes56TmVfxPrcsnVGewaioqGENdDDcOrufrYlGswtpamr6+vr6+vqiKJqcnHzv3r379+8/ffq08Z+fxWLJ8BBgYeCoA2f6dZf7+pWczcTxdtteJ8XGAn7+shOiHpeQXT3d4V2l9lm2bFlkZOSGDRt27NiBdS0Yg/mLGRRFjx49GhQUVFNTAwCYOXNm0+/qaSgu8nJY5OXwpaLufW55BqM84nn23xdfVzIb2FyESMDzEISAx1Pliab6KlZGaoMcDBeMszPSVsLj2xjijsPh7O3t7e3t+ZeOiYm5d+9e2OX/KksLa2pqVFTgRnDNEYxsbFXwTb40NaaAhPwc/pfc95FxuXj7eR4a0jXGTKo1zkv28PDAuhYswfzFRkZGxpw5c548+bpAKo1G8/b2bvGRWqoULVVKs5tyHC6PgMe3GbVtotFoY8eOHTt27MH/HcrJzu4Cd9IEgVNSVmn6qQBPpVJwaC1/uB4vLyo2DVit8qDDDw7tp6mpGRoaOnPmzMTERA2N5p/Vug6pzV+ZbUtwudwdO3bY2dk1hi8AYMKECR0aj0UiEoQP32YntLAwJ5PhihAtaT5EiMPhAMD/WSFl0TFveAYDPGxlvMUgcp6enlOnTvX398e6ECz9mL+8T3Fh587fS2t7IH5DZtSF87cSyxBxFSab+ZuQkODs7Pznn382NDQ0Pe7n54dVSVCbkM/5+U0CGKn6XFSD4rV0AQCg9lHU83q1/p694DtXx23btq2kpOR///sf1oVg5sf8bXh6cM4M/20RxW3t2tfw+MCsmYvOpH1fsqku8/rGqSOHjVwSlieSTJa1/K2vr1+1apWrq2tycnKzb5mYmAwYACdlSi9e8aOHr7+/X1bFPUri4PUcXAAADS+jnlRRe3u4iWtVXZlGJBIvXLiwbdu2pKQkrGvBhmD9Dz/NtvxrUq9eE7ZeuPsg8mW2aGZbytqnuYULF545c6bFb82YMQOuCyWlUARBAF6p/Grgyl6ntkywUWamha3afKOUaLN2Zn8A2EkP44oIjh6Dvq8jymPc3Ln7Tj4PAMDLSWEDhBGxbWEeDQcAgT523dqRuti9GGlkYmJy8ODByZMnJyQkdMF5yQLlr0RmW6Kyhc1mBwQE/PwycThcdnY21tVBv1AeMoKMIw//+/aOYQZkopwCmYjD4ShmXocTmSiKct9vdyGRnDalcL4/g/NmXc+W16UhOW1JxeyFSLeZM2fOmjUL6yowcPv27VGjRn37qvbceAqO1G/327dha7z6dqfr63ezdZu07vL72qbP4RUED1EgdV/9vAFFUV5uyDzfPTGFXLT2vBcVR3LZlsYVRWGSzV9uTuyFf8/dfVfT1gNZGZHnz918U8oT7DohISHNxpy7u7sLdipIwmrz30TeuHz1Vmzql4avh7iMZ1fCrj7LF8n/+K6spqbGwsIiPDwc60Ik7f79+0OHDv32FT9/uw90NzYeNH/zwaNHdi0dZiKPIxnNuFL0PXHKz3mrEA3m3av/8VSdOX+/vvHsyWqjdtbDBUZEFa9z5U2emnFtg++IoSMWX2C0HcpJSUkqKipNNwI4deqUkLVDkAxISEjQ1NTMycnBuhCJio6OHjRo0Levas+Np+AATnHA7tRvb/ENyZt7yePknLe8/fYZq/aWvy5RbdLF6manEm3+SuX9tx/7vTva8V1WVjZ+/PgTJ04kJyf36dMHAEClUn18fMRfNwRJO0dHx6CgIF9fX+lcD0xMWuj/bWG2JZHzNjb2C39cg4RmW0pj/n7t9x7ooYMH/I7vYX8+UvM/uWkEpc3bZzweb/LkyT4+Pj4+Prq6urGxsXPnzvXy8hJ8aXAIki3Lly9XUVHZuHEj1oVITgv52+JsS15+Tg4XgMbZloPEPdsSk/xF69+HB3n3szY2MDDp4T55/ZX0pksTfV1lcKCnKQEAAPjLDL6JPTDJTKHt0QtBQUF4PH7nzp38L+Xk5E6cONGVRz5CUDM4HC40NDQ0NDQmJkbEpxb7fAUBtdT+/cVsSyYKGmdbDhL7bEss8rf87qIxa19pDgsI+mPxWP38/7b7Dltwtbjxn4y/yuAA/iqD/GUGVw3Ubc/PISws7Pr16+Hh4c32uIWLLUBQU5qammfOnJkxY0ZZWZkIT/vzfAWRT1gQTEvjz34x25IMJDnbEoPxv20sMyjoKoPJyclLly6NiopSVcVgt3kI6lwGDx7s6+vr7+9/8+ZNEZ3y5/s20rI9VAv5y59tafOtXfd1tqWZri7x22zLkRKYbYlB+/dXHd/8rwXr9+bfczty5EiPHj1EXC4Eyaht27YVFxcfOnRINKcT5r6NmLWQv7+abWlMkORsSwzav60uMyjIKoM8Hm/SpEkTJ06EgxwgqP1IJFJYWFjv3r3d3d179uzZ+oOZ767s2/tPxMuMwio2ScXQdoDPsj+XeBp+D5Afdof6dt9GSraH+jF/W51tSQbslx2bbXlk7UiBC8Mgf1tbZlCgVQbXrFlDJBLhItMQ1FEmJiYHDhyYPHny69evW1kakJt28Df3wFic8/SFi/z1FWoy7pw8tmpkTPbNl4eHfbu38sPuUFK2PdSP+ctuYKOA5BJ02O1+gJPWDDwBYbF5Cqbj/w79w5UMeOlRsVnAdpKH/vcmIFoWfznkeMr3FnTR8wsnngMAAMlJv5Plb8sd30pN+r1ndqDf+8KFCzdu3IiPj292zw2CoPbw9fW9f//+0qVLQ0JCfvGQhsfBB2IrlMeeuvnPTP5mfHOHK7o6bz3zvyvrh8zhH5Hq3aF+zF/VOXdYcwAAACzPmJH4/PXHKoKmpWsfG01+pyh10OqzVnoDrJtkENFhazJ7qxgKwyB/f9XxDTre752UlLRs2bLo6Gh4zw2CBHbkyBFHR8fLly//ogeP3HdLXOrcaorpt51QAdGil506LiUnM4cLtOWAtO8O9cv1dyj6Dp76Dj8cIhj28ZbYrtEY5C+/43tYv68Z22SZwY71ezfec7O1tRVnvRAk4xQVFcPDw0eMGOHi4kKn039+AFnNyIr6OSnq/N1MRuGXyroGTkPum1oAFL+FmpTvDkUkEqVz/wvJ5m/rywy2sMrgLzu+EQQX/SqVP9VNoi8BgmSRo6Pj6tWrfX19Hz169PPmsMz4g9On/PFfNpuqTafra6pS5Um15ZzvA8qkfXcoqd1/SLLr77S6zGBLqwy2sswgXsmsH48n4AJpEAQ1gyDI8OHD161b1/wbDc+DbORwchbTQ981rkbDujtXn0A0W/aoAUVRXvHJ0YrEbr9Hs1o4rWgXrBEMgiCSzrr2kWz7t9WOb14L/d4td3xfuHBhw4YN8a9uwXtuECQq/HnJ/P2S3d3dG4/zsqOjM9mkPgFbp1nTvh5DKnIZFQj4uo+s5OYrCAiHwxEIBC6X22xZWsxhVs3PHd/t7PeG99wgSEy0tLROnz49ffr0xMREdXX1r0cRBAE4HJVGa2ztsJKP//OoHkURHg/tJLtDkUgkmL/CgvfcIEishg4dOmnSpNmzZ9+4cYN/hGDSy0kH/+bZ2f89GbeuvxozPeLQqlVXNAaYEx8WpKV+5vUtbv99G6EnLAiM3wUsLy9lw+Ow7gDpAC6X6+npGRQUhHUhECTL2Gy2s7Pz4cOHvx3g5l6aY0PD43BEsjyJQFDpMT0kpfzxalt5HA5PormO6Els/30bktMWDF4SiqqpqZWVlWFy6VbgUBTDZTE6ZsWKFWlpaREREbDbF4LEKisrq2/fvpGRkY3zkrklaU9fvC/hUg3s+riYKOMB4JWnxT1KqyRRSTVVHPqAcX30pXPwA5+Ojk5ycrK2tjbWhfyg0+Tv+fPnN23a9OrVK9jtC0ES8O+//+7cubP1ecmdiKGh4fPnzw0MDLAu5AedoyGZmJi4fPny69evw/CFIMmYPn26k5PTsmXLsC5ENKRzCHAnyN/S0lIvL6/g4GB4zw2CJCk4ODgmJubKlStYFyICMH8FwV9bcsqUKRMmTMC6FgjqWmg0WlhY2O+//85gMLCuRVgwfwWxatUqMpm8bds2rAuBoK7I2dl55cqVvr6+PB4P61qEAvO3w86dO3fr1q0LFy7AAQ8QhJWVK1dSqdTNmzdjXYhQYP52TGJiYmBg4I0bN+DumRCEIRwOd/bs2ZMnT8bFxWFdi+Bg/nZA4z03GxsbrGuBoK5OW1v71KlT06dPLy8vx7oWAcH8bS94zw2CpM3w4cN9fHxmz56NdSECgvnbXvCeGwRJoZ07d+bl5QUHB2NdiCCkM3+/r7/zKDnfzU6oySEIguaV1JRXs9gcHpvLI+DxZBKBIk/spqMsT27vQj/8e25wPzcIkjZycnJhYWH9+vVzc3PrdIPxpTp/EQS99fSjAPn76XPV25zS9NzydEZFVn6FKk1eQ0WBTCKQiHgeD2Vzecw6Tu6Xal01ane6mpWRmhVdraeJJpHYcrby77nFxMTAe24QJIXMzc3/+uuvyZMnx8fHKygoYF1OB0hn/gq4/gOLzX34OvdK7IeyqnoHcy0rupqloaqlkRqNIvfzg7k8JLuwKp1Rns4of5dTVlxRO7afqZebuY7aD3v1lZaW9urVa+/evd7e3gK+GgiCxG/atGmKiorHjh3DupAOmDJlyrj/t3feYU2dXxx/s8OGgIBskA0yRJYTQUUFB4oTJa1Fq621BWtdLe5W7c/VYavWVnAriqNOBAEVcDFE2SOEvUcYmff+/oimYSgjIQPez+PDc+/Nve89ieHLuec957xz5y5ZIrGlNftEv/v/ltYwrjzKvfOMNtpUa/Xs0Z52elgsppd74LCWhhqWhhpzxo8CANAqm68m5i/ffcfRfESgl6WnnR4AgMvlLlq0aNmyZVB8IRAZ548//hgzZsy1a9fmz58vbVv6itz7v1weEnkv60JsTsBE84BJ5iM1Rep2z2Rx778oOR+TraelvHWF2487t+Xl5d26BZcUgkDkgBcvXsyePfvFixeGhobStqVPfPbZZ+PHj1+5cqW0DelEX/3fgvKmnf8ka6iQzv4wS0dDDP3oyCT83Amj/DxM/777xnvp5vo3N7My06H4QiBygaura1hYWFBQ0KNHj7qvlyyDyKb/27veoSj69503aw8+DPSy/OVrb7GIrwA8HjtWn1v+/Lzz3E3bI9MaWphiHBwCgQweGzduJJPJu3d3XR5XNpFL/UVR9MCFF09el5/9YdbcCaMGwwIEQSIjTt84+rmFgfrn/4upa+4YjLtAIBDxwq9LPnHixOPHj6VtS+/In/7yxTevtPHXb8Ts9gozduxYf39/PA67br7zTHfTNQcfDmUJZuXFnj93K60ekbYhEIjo6Orqnjp1avny5Y2NjdK2pRfkTH8F4vvL195K5J6X0hM7K/3sZ3kMZQlmPT6ykrrudJZQnLs9L3p70CzfWesvlEJRhsgdM2fOXLBgQUhIiLQN6QU5099j1zMkLL58Vs6yn+Vh+sWhh0wWV5L3lQjsjNjESsJYby81AAAA3IpHPy92dQ3cff7ug4fPilrlYyU+CKQz+/bto9FoMp4OjMfj5UZ/MwpqbyUVHvzSS8Liy2flLHsbY81fr6VJ/taDC684Lj4PjPby1sUCgNRcWOHiuy2R8ulfO2Yq9pJCDYHILkQi8eLFi+Hh4W/evJG2LR9EbvxfJpu763TypmVu6sokyRvEZ8Nil0dppa9yq6VlwABofRu189OZbrZmBvoGpnaes9ccii3t5MIj1XFxGcDcy2cUDgAAmG2q3nsfpMYfWWyuAOUXItdYWFgcOHBgyZIlHR0yGjmUG/3943qGtTFlirM006pVlUhbl7vvjkjpkJMoBDfr6LzJi3f/22C3cN227dvWztDKPbNx1tRv7jf9d07zo9gXHJ2J3k5EAADAGoUcP7fRa6QcpE5CIL3zySefODo6hoWFSduQniEQCFyuzIlJV/19W1x3/wVt41JXqVgjzAQHfSeLEb9Hp0vbkL7AenzsSHyj2pz/3Ty1M2zt6rXfHYyO+tYJzT/9S1T1+1m19qexSa2q433GkaVqKgQyWPzxxx8PHjyIjo6WtiE9IB/+7+m7b1f5j5Zi5EGYbxa63EkpbmplSduQXiGN25XwJjXxyAKd9x8o3tLVURPDKs4rfvc3l/0q9nEtyd1nstIHR4FA5BpVVdULFy6sWbOmtLRU2rZ0RTb1t1P9cU1j+6u8mp0rx0nLmi6oK5MmOerfelq4wtdW2rb0AoliZK1UmR577m4evaKmqZ3FYZWktgGg/P6/nJv9MKEE67TaWwuWWEOGLm5ubqGhocuXL4+Li5OpumTZ1N9OYnD9cYGvm7GiNHIePkTgZMurifkDa5IpSVpfHA2wMx/j/8m3+09dfZCY8jLtDa2B85/VvNLY+CxgPcXbWIa+khDIILBp0yYikShr69fIuv5yecj1JwWBXpZStKY79mZaygqElKxKaRvyUdgpez/97kapwfLTGRWVBW9eJj9OeHR3zwxNwaeL1Mc9SuUZTPS273fDTwhEvuDXJf/5559PnjyRti3/Iev6+zSzQk9LeZSezC08ETjZMjqxQNpWfAxeUVxcHpvgsWb3cluVd8eQxhJ6o6CgrS0xNrmDMsHHVSbi6hDI4DJy5EhZq0uWdf1NL6gZZ68nRVM+xDh7vfSCGmlb8VEQBAEYjJKKiuDjZGYcP5XYgaIIj4cCwHoW+6RZycN7kkgtkyEQ+WHWrFnz5s1btWqVtA15h2zq73+PwzklDbI5zaWtoYgBmOrG9sHrASQiODNXF11salLkL0/mfj+B0ppz+9eNG6O0JlrgY8qz3lTyxlXHJFThxnhP0fjvGh795k/775TxAAC84tdsgNBv7/miVAUDAM54zu9bZkntzUAgYuLAgQMeHh7Hjx///PPPpW2LjOovQN8z5evL9c0dqGh05EeHL3I31SDjcSQNM4/F228WsUQcEkVRdP3RuPg0uhgGGiy4JZdD7FSwGAyeRCbgcOqjV5x83fD4O3syBoMlqLjPdMATXHa85ghdwUn93qHneU6Cyy6pvQ8IRKzk5OSMGDHi7du30jYEjYmJmTp1qrSt6Mo7/7e8rpVMxFFURSoN4OaeWOT9xb91mk7TFnrrdBTE37+yKzCt9saz32eIGFS2NqLk0BsmO8nsSic4o4Un071Cn6Zk13KVDBw93czUsAD8mPDKNzGriaBEYDSHGE+0FZ57wzvvzmDLR+dqCGSgWFlZ7du3b8mSJc+fPyeTpVl5JJv+7ztJyKU3WBlSRBoJKY38bsvtBuu11x7+4qeLAwC0pnzvNe3o7Qv3dkxfMkKkrFdrY8qNJzI9BQcAwI+wnTy7UwAHR7H1nieLIR0IRGKsXLkyJiZmw4YNv//+uxTNkE39fSeL1Q3tBtoiTQ7xii/9c79Zd+HuvXzxBQAoe+xMqm+mRYgovgAAgxHKBQVF+fn5bDZbxKEgEIiE+fPPP+/evXvjxg0p2iCb+vvO/2VxeES8SJUBDXFxrziqc/yn8kMNCIJgsVgckSiyhQAAQCTgijMTZsz4sby8XEtLy9TU1MTExMTERLBhZGSEx8PUWghEFlFTUzt//vy8efNcXFwMDAykYoNM6y+byyMRRNFfdm52IQdnZE55cfiz3X/eTCms5yroOUxbseWn7YFWIod9SAScqWvAv3GRPB6vvLycRqMVFxfTaLTHjx9HRkbSaLSqqiodHZ3uumxgYCBTRZAQyPDEw8Nj/fr1/LpkqSxzLtP6iwEYBIiy/A1SX9+AIIRLa1aQHD8J/eNbE1xl0pmDhw8sfVHMTjq/zFC0DxxFUQwGAwDA4XBGRkZGRkaTJk0SPoHL5ZaWlgp0OTY2lr9RW1urp6fXXZf19PTgWvcQiCTZvHlzbGzs3r17f/jhB8nfXab1l0TANrWKYhzC7GCjvIbWMWcSLy4biQUAgBlzpurPHvPF1Z1HkgMPjhcpEMFi80iEj8klHo83NTU1NTWdMmWK8HE2m02n0wW6fPfuXf5GY2OjgYFBd13W1dXlCz0EAhEvWCz2zJkzLi4uPj4+48ZJusmXTOsvmYjvYLeJMA5WQZGEwSCec2ePFOgkzmTRkskb791OjMsH4+1EsbKDzSUTBxLeJRKJ5ubm5ubmXY4zmcySkhKBLt+4cYO/wWAwjIyMuuuytra2KPZDIBAAgJ6e3smTJ4OCgtLS0tTVJdrqQKb111hXNTaVLso4I/V0cIBO6DyJpzhCSxWLNtU3iDAyAAAUVTQb66qKOIgwZDLZysrKysqqy/H29nYajSbQ5ZcvX/I3mEymsbFxd13W1NQUo1UQyJDH398/JiZm1apVV65ckeR9ZVp/rYwoeaWNgjDrAMaxdLRVxuRmZ2ZxF48VeKqtFZVNCEZXU7TMYgBy6A3WRqIO0hcUFRVtbW1tbbsm7TIYDGFdTkpK4m8gCNJdl01NTdXU1CRgLQQij/Drkk+ePCnJ7hAyrb/qyiQlBUJ5bauBtsrHL/gQalMDplGirp797db6vwO0sQAAwM09c+5xO9bAc0LXx//+klPSMMlROmkrfFRUVEaPHj169Ogux5uamoR1OT4+nr+Bw+GE3WSBLisrww48kOEOiUS6ePHixIkTJ0yYYGNjI5mbyrT+AgCsjSjZ9IYB6y/QnL91w7j7286s9EWyv55np1iTcvbg0fhWtSm7vpgkUtdFFEXzShsl4//2F3V1dScnJycnpy7H6+vrBbqcl5f34MGD4uLikpISMpncXZdNTEwUFWW0tRAEMhhYWVn99NNPS5YsefbsmWTqkmVTfzHo+6Ul/vo3s53FXb/AeeCDIZUxOz/7/H/3ae0ICgAGq2zut/nPk1u8dUTK9KJVNn/zW/z1vXNFGURGqKmpEfaX+Rt0Ol1FRaVHXSaRYMNgyJBlyZIlWlpav/32mwTuxePxSCSSrC2B/J/+vi2u33bySfTeOSImYPEacp+9yKlikvVGe7iaqYle/HDi5uumVtZ3y6S/JPMggaJoVVVVd10uLS2lUCjdddnY2JhAkKE1oiCQgdHc3Ozs7HzkyJE5c+ZI4HZYLJbH48lUgul/+gsAWLHn7tp5jjLVhZ3LQ+Zsuf7rN94yuDDHYIMgSEVFRXddrqioGDFiRHddNjQ0hEXYEPkiOTk5ICDg1atX+vr6/CMXL140MzNzc3MT+71IJBKDwSCKqSmCWOikvzeeFCSklx1a5yVFg7oQ+4p+KS73xMZp0jZEhuDxeGVlZd11ubq6WldXt7suGxgYwGI/iMyyd+/ehw8fxsbGdnR0rFu37vTp06GhoYcOHRL7jZSUlGpqapSUlMQ+8oDppL9MFtd/c/TZ72fpasqKiWsPPgyYZD7d1UTahsgBHA6HX4TdRZfr6ur09fW767Kenp5MPYtBhicIgkydOtXa2jo2NjYvLw8AYGZmVlhYKPYbqaur02g0Cdd9fJxOj6tkEn6Gu+mlR7lfB46RlkHC5Jc1Flc2ezsbSdsQ+YBAIJiZmZmZmXU5zmaz+cV+fDm+c+cOX52bmpoMDQ2767Kurq5U7IcMTzAYzMSJE/fs2YMg71rQFBUVvX792sHBQbw3ksEUiK7hwk9m2C3bfdvXzUS6+V4sFguLw++OSFk7zxGPh8/OIkEkEi0sLCwsLLocZzKZtPcUFxdfv36dv9HW1mZkZNRdl0eMGCEV+yFDmJqaGiqVeu/evS7Hr1+/Phj6K7v5DwJuJxedi8mO3DpTisJ3+/btdXsiiRqmlU+OkUgkMplMJpP5G112zc3Nd+3aJS07hyRtbW3CuizYYLPZxsbG3XWZQpHF1GyI7PPmzZupU6dWV1d3f8nZ2Tk1NVW8tzM2Nn78+LGRkQw9T/cwXe7naRb7iv73nTer54j570/fsXIab+rWWpN4mMFgMBiMj5y5ZcsWiVk1TFBSUrKzs7Oz69oyicFgCMvxkydP+LsoinYp8+P/VFUVZ8sOyNDDzs5u8+bNmzdvZrFYXV5KS0uj0+ni1UoZjD/04P8CAOqaOpbtvn10/RQbYyn0l2FzeJ/tfxDoZentqE2lUqOjoz9yclZWlsRKGCE90tTUJKzLgp8EAqFHXZapCWiI1MnIyFi2bFlWVlaX40ePHl2/fr0Yb2RjYxMdHW1tbS3GMUWkZ/0FAMSnle47//y3r73NDTQkaRCbw/v2WIKqEmlPyHgAAIqie/fu3b59uyA2L8yYMWNevXolSfMgfae+vr67LpeUlCgqKnYp8+NvKCgoSNtkiHTo6Oj49ttvjx07JnxwypQpcXFxYryLg4PDuXPnundxkSIf1F8AQMzLkoOXXv72jY+5voQyNvjiq6JI3PXZOJxQyurt27eDgoKam5u7nO/i4vLTTz/5+PjA/FY5oqamprsu0+l0NTW17rpsbGwMi7CHCbdu3Vq5cmVdXR1/F4/HV1dXi3F2wcXF5eTJk2PGyERyF5+P6S+QrAR/SHz55Ofnz5s3T/ghBYvF7t69Ozo6urKycvny5VQqFQYi5Bd+EXZ3XS4rK9PU1OwexzAyMoJF2PIIk82lVbZYG/esqpWVlVQqNSYmhr8bERERHBzc45l1TR1NbSw2h8fhIngclkTAKisSdSkfC215eHgcPXrU3d1dxLcgRnrRXwDAgxe0gxdfbVnu5uVsOHh2lNUydvyTrKOh2KP48mltbaVSqdeuXePvzpw5886dOwCArKysyMjIs2fPjhw5kkqlHfwgdwAAIABJREFULl26FLZFHzLwi7C763JlZaW2tnZ3XTY0NIQrrsoyVfVtv0Wn86OLPYKi6OHDh7ds2cJmswMCAgS/71X1bW9p9bn0hhx6Qw69AUUBRYVMJOCIBCyHi7A5vOY2NovDszTUsDaiWBtp2JhoGut0mgF++fKlhYWFTPXm7l1/AQAZBbW7TifbmGhuXDpWTUnMD4Moil55lHfi38yVM+2W+FhjsR+ryEJR9McffwwPD0cQ5Pz580uXLhW8hCBIbGxsRETE7du3vby8qFSqn58fdJGGKvwi7O66XFNTM3LkyO66rK+vD4NUckR6evrSpUvpdHplVXVydt3VhHxaVbO9qZa1EcXamGJtRNHW6KFlayODmUNvyClpyKE3vC2uV1MiLZhsMcPdRJEsozrQJ/0FADDZ3D+uZzx4UbJpmasYHeGyWsbuiBQuDwn/xLPLH6uPcOfOnTVr1uTm5vY4Y8NgMKKioiIiIrKyshYvXhwcHOzqOmR7p0G6wC/C7q7L9fX1BgYG3XV55MiRsAhbNikqrQ0OWdumYOE5yWfBZMvJTgZ4XD/+gqIo+jy76mpC/qvc6uluxoFeljLYw6uv+ssno6Bmd0SKiiIx0Mty2lhjImHgD3qvC2uj4vOeZlas9LNf2pvb2x0Gg6Gi0kureBqNdubMmcjISCKRuGLFihUrVgh6LEGGGywWi06nC6fH8Team5v5xX5ddFlHR0faJg9feAhy5n722ZjsWR6mPg6ajtYitX+pbWqPflxwLTF/qovxugAnMkmGegT2T38BADwEefK64mpCXg69wd/TbP5kC4MR/Vgyo4PFvfus+Gp8fgebGzjZwn+cmaq4AxrdSUpKioiIiIqKcnFxCQ4Onj9//pBYb4KVF3v1RbvNDD9nTfhgPVA6OjpKSkq663J7ezu/2K+LLmtpaUnb5CFOYUXTrtPJygrEH4I9xNgIrKWNdfDSq9eFtT9QPcZYysof137rr4CyGsa1xPx/k4uIeJyVEcXaiGJjTLE2pmipdYoJMFncvLJGfkQmh95Ar2F42I5c6GXpZqMr4ec+JpN58+bNiIiI5OTkefPmBQcHT548WY6fPVkPv7CceWHs6aKrQe8ytNvzovfvPJnSaP7J8SNLDaEmiwK/CLu7LnM4HJP3COuyhoZE0+SHJCiKnr779vzDnC8DnOZNFHXRyB55/Lps39nnk50Nvw4cQxLh8V1cDFx/BZTVMnLpjdkl9Tn0hhx6Y3Mri0TAEQk4Lg9hc3hYLMZcX50fNbcxppjrq3dZo76PHL78ytJQw8+za3OvAVBdXX3u3LmIiIiWlhZ+4pq5+aD8Zw8q7Odbxkw4OvJw/v0v9bGAW/HocOi6PVHZLQhKcNuTkbTNRvpfrqFIS0tLj7qMwWC6Jy+bmpr2GiWD8EFRdE/ks5Lqlj0h4z+eRiYijHb2nsiU1g7OoXVeUpdgMehvFxAEZXN4bC4Ph8OS8DhxNfFpZ3LwOKwoEefuZGRkREREXLhwwczMLDg4ePHixTLVG/Sj8HL3TRgdjmzPSNpmg6m5EORIvQrcv/hxWt66HQ/td0P9lTSNjY3ddZlfhC3sJgs2YBG2MAiC7j2TUlbbevSrKRKIzyIIuv3vpAYGU+oSLH79lTu4XO79+/cjIiJiYmKmT58eHBzs6+sr3YV8Wt9GHfzfqdvPciua2QR1Q/uJC7/Ztt7HUMgkpOKPGeZfl32VmL7fg4jQ/1q7pXHp/8K81C4t0F5+yw7qr8xQV1fXoy4rKSn1qMuSWQxYpkAQdE9kSkV925F1XhKbHJMRCYb6+x9NTU2XLl2KjIwsKipaunQplUp1dHSUvBncrKMzJoXFY8au+GKxm74CI/fOX3/eKTFYe/PZb74C77zxXKDZJ88W/Zt/3Ff497X9PNRf+aC6urq7LvOLsLsoMr8IW6ZWLRMvB86/KKpslqT48uFLMKODfXidl7TmgaD+9kB+fn5kZOSZM2fU1dWDg4ODgoIkmI3EerTOetofzXP+zo6i6mABAID7erv72N25004U3grhHwHt/640D7gx6Rzt4qJO4UWov3INiqKVlZXddZlfhN3dXzYyMpL3FVefZpYfOP/iwnY/qZRI8BAkZP8D/3FmCyZbSv7uoMf+vxALC4vdu3fv2rUrISEhMjLSxsZm3LhxwcHBc+fOHfxeMKRxuxLerGpRHKXzPnCOt3R11MS8Ls4r5gIdIgAAsF/FPq4luftMhjHEIQUGg9HT09PT0xs3bpzwcQRBysvLBYr85MmTs2fP0mg0fhF2d102MDCQiyLs1nb2T2ef7/jUU1r1aTgsdvsnnqt+jhlnrzdSU1nyBkD9/SAYDMbLy8vLy+u33367du3aX3/99cUXXyxYsIBKpXb59RAvJIqRtVJleuy5u3n0ipqmdhaHVZLaBoCyoHU0N/thQgnWabW3FswxGxZgsVhDQ0NDQ8OJEycKH+dyufyVsPm6HBcXx/eX+UXY3XVZT09v8Iqw6XS6oaFhvx7kD156NcnRYKy1NNcbNBmptsLXdndEyu+hPpKPQkD97R1FRcXly5cvX768rKzs7NmzISEhHA4nODg4ODjY2NhY7LdrfXF0xdKtN4rYSjrGxvojNJTIhLYGjlCUiFcaG58FrDd6G8uBiwMZRPB4PF9bvby8hI9zOBw6nS7Q5Xv37vF1mV+E3V2XdXXFkIz/7bff5ubmbtmyZdGiRX1R+aQ3FWn5NRe2+4l4X9EJmmb9KJUe/bhg/qSuayQONlB/+4GBgQF/uZQXL15ERka6urra2tpSqdTAwECxpXmyU/Z++t2NUpPlp6N/D7blD8q6t3qU/z/vz0Dq4x6l8gyo3vbwPw/SIwQCYdSoUaNGjepynMViCYr9aDTazZs3+RstLS1dirD5G9ra2n2/KZ1Of/369dKlS8PDwzdv3rxixYqPd786dTvzm4VjFGSgGhiHxW5a5vbtHwnzJpj3txGCiEj/zcsjrq6urq6uBw8evH37dmRkZFhYmJ+fH5VKFb0TPK8oLi6PTfBcs3u57XtFRxpL6I0IeF9W2JYYm9xBmeXjCruSQ/oHiUSytLS0tOw619TR0SE83ffy5Uv+Br8Iu7u/3GN/15KSEv5Gfn7+Z599tmPHjo0bN4aEhPTYJCuvtLG6sX2io6z0Y7E2poxQU3iSWT7J0UCS94X6O3CIRGJAQEBAQEBdXd2FCxe2bt0qhk7wCIIADEZJRUUg48yM46cSO1AU4fFQAADrWeyTZiUP70lSmC2ADE0UFBRsbGy6f2lbW1uFdTkpKYm/weVyu+iynp5eVVWV8LWlpaXr16/fs2dPaGjol19+2eUBMSo+b/5Eiw91+pYKCyZbXk3Il7D+wvwzcSKGTvDM+2ss/U62jPvh36vfT6C05tz+dePGyzwTdkxM+eRf3txfp/dyk9PEozo/58Z+bfzuy8uj3/xp/50yHgCAVxwbEVOs6bF4joMKBgCc8Zzft8wS+9uE9Ich2Capubm5S3vP3Nzc3NzcD52vrq7+1Vdfff311/xfh9YOzpwt16/s8tdUlaEV/1gcnt+m6MitM/S0JOjaoBBxw+PxHjx4EBQUpK6uPm/evOjoaDab3eeruSWXQ+xUsBgMnkQm4HDqo1ecfN3w+Dt7MgaDJahO+S7MlUBw2fGa898VnNTvHXoOtBFcdg3C+4P0B2bMWiO8+vyzDSiKoiiv6vEvq6fa6akQcQQFLYsJy/fcpXF6GUEeiI2N7VVqlJSUwsLCKioqrjzK3XL8sbRN7oFDl17+fi1NkneE/u8g0qUTPJVKHTt2bF8u5NZmPU3JruUqGTh6upmpYQHgNWQlJGY1kU2MFEsK6vQmzvXUh8kP8kCnNkltT76fPOvHVJ6hh6+3PaWj8PG9+Hym+eorT47NHiHfvvE///yzcuXKD72qoqLi7Ozs4uLi4uLi4eHx18OKSU4GM91NJWlhX3iZU/XHjdenNk2X3C0lKfbDluLi4l27dpmbm9va2u7bt6+srEzaFkEkAzfnJw8CwW1PFhdFuTk/T1TEkh03PGp492pb2k+T1LAEm++SWFK1UnR27NghrCpqampeXl4bNmw4f/58bm4ugiDCJ8/der2ookm0G/Ia0yI2BriZapLxWDyZYuIye/3x5DqeaIMy2liT1l3k8ZDeTxUTUH8lytOnT1evXk2hUKZNm3b27Nm2tjZpWwQRBcabKzs+meFqY6qvp29i6+H/+cGHdOFwAq/82DQFgs13ySwU5b7Z7UrAqs87XS2kEoxbK/VxOLOv4uVcgMPCwry9vTdu3Hjx4sX8/PwugiuMWDSO8STcXQ2LIWg7zgwK+fyzJVNtNPAYjNKYbU9aRRkWRdG5W64Xi/q3oR9A/ZUCHR0dly5dmjVrloaGxqeffhofH/+R7ytEVuG8PeKjicVpuX0SfvDY8WP7w/wtFLFEyy/vNQpOaTi7QB1vsPpeB4qidX/5KWCIkw4Wd3LSGk/PUcIQ3H/M5krafCnxIrty5b77Ig3BLTo6RQlDsAy5Wfn+s2RmH52mgcWoB5ypF8287/5IuJtSJNoY/UC+o05yCplMXrRo0e3bt7Ozs+3t7devX29mZhYeHl5QUCBt0yB9hvX42JH4RrU5/7t5amfY2tVrvzsYHfWtE5p/+peoaoR/SvvT2KRW1fE+48gAcEtLyrgYJQMT3U6/cwrGxjpYpKyYxpXGe5ACOfQGG2OKSEOgzQrWcwLXbts0S/BZkqyDl44ngbbCnGLRPkhrI0oOvVGkIfoD1F9poqOjExYWlpGRcf369dbW1gkTJowfP/748eNNTU3SNg3SG6RxuxLepCYeWdClURKrOO+dBnRqk4S0NLeiGCUVlc71VThlFSUs0sZg8CRrvdSoqG8z1BatWBTvtOrY+ctHg82FpqCR5qYWHsBqaos4kWmko1pZ3yrSEP0B1l/IBI6OjocOHTpw4AC/E/ymTZt8fX2Dg4NnzJghF42shiW9NUrq3CYJRVAUBd3LW3E4LAAIMmyykFhsHpko5q80rzbl168PJyH6C1cvNBBNf0kEHJMtub+FUH9lCDwe7+fn5+fnx+8Ev3fv3pCQkGXLllGpVAcHB2lbB+lCL42SurRJwikqKWDQ2vb2zkqLtLV2oBhFZcXh8iTK5vDEtooY69EPMzfeqqwrK6kj2/l+d2HvtsCRIn6OJCKOzZGc/g6X/3X5Ql1d/fPPP09KSkpMTFRUVJwzZ46Tk9OhQ4eqq6ulbRrkHe8aJRksP51RUVnw5mXy44RHd/fMENS4vWuTNPF9mySsgb4OFm0uL29COg1TWlrFw+kaGAwjT0h8JQcYLA6HJ5DIBHZd0duU2MSszh/uAEAQVJJNKKH+yjT8TvDFxcVHjhzJzMy0sbHx9/e/fPkyi8WStmnDnHeNkjx6aJTEh98maYKgTRJWy2WMGY7z5vnzDqFhWKnP0tsxmk5jLYeL/orTwSR57Yx59vJ1bllN4Z1vzXL/Wjtz+V9Foo3N5orPPe8DUH/lAH4n+H/++aesrGzJkiUnT57U19dfs2ZNUlKStE0bvvTSKKl7mySiy4LZFriaWycvlLzXaKT6xp9Rxaie30JvRYm/ASlBJuI7WOJO9iAZem/6a6sXsf7BXxfyRBJgFpsnyeU4of7KE/xO8DExMenp6SYmJiEhIZaWlrt37xa0/oNICpyZq4sulpMU+cuTWi7gNeXc3L1wSZTWRAs8Up31prIjPSahCjfGe4rGf5cQ3b7eMke76U6Y35LtJ6/cuPrPj5/OWnOpUn3a1s2+w2chKUNtFVpViygjIOVxx3Zs3vz3S7bwUawaRZ0I0Ob6epH0t7iyRdT0jH4hsUxjyGDw/PnzL7/8UktLy8vL6++//2YwGNK2aNjwsUZJeCUzw65tklAURdHGpIPzrVTeJUFgsEqj/PfGi1o1K/vU1tY+ePBg//79S5cunTJ1ZvDeu6KMxqs8MVMZg9NfHiVUSciru/6JIQ6jOP1YuUgfZ9hv8TEvaKKM0C9g/52hAJvN5neCj4+P9/f3Dw4OFr0TPKQPfKhRUj2jtZmgatdzmyRec9HLlMzyDtJIe3c3c40hl16IomhRUVFaWlp6enp6enpaWlp7e7vTe2ztHcL+yX10dBEeN+DvZ9P9de5zjhUo2gd+uWaeq5ESs/zVzeO/Xkxn6K+49Oqf+aKkAPtviv7z26kGIyTkAkP9HVLwO8FHRkZWVVUFBQWJ1AkeAukbbDb7zZs3ArV9/fq1uro6X22dnZ2dnJxMTEyEz18YfmvvqgmWhhofGrB3WAVR29Zs/ONRSfu7zGkMUWfsit0nDq9yEkE5mxjM+T/cijuycOBD9BOov2KmvLxcQUGBQhGtwlJksrKyIiIizp07N/BO8BDIB2hqahKobXp6en5+/qhRowRq6+Tk9PHvf/ippy5WunMndF2err9wGwtfvXxT2sQlqOtZOY2xHiHqilzJbysi7mX9uWGqiOP0Hai/Ymbt2rUODg5r166VtiEAAIAgyMOHDyMjI2/fvu3l5UWlUv38/D6+KiIE0h06nS5Q2/T09Pr6egcHB0FIwd7enkwm932028lFD16UHF0/ZfAMHhh7I5/paSl9OsteYnccLlmHwxMsFjt9+vTp06czGIwrV64cOXJk9erV/eoEDxmGcLnc7OxsgYebkZFBIpH4Urts2bIDBw6Ym5uLsl791LHGR66kltUyJBZm7QutHZzYVPqVXf6SvCn0f8XM6tWr6+rqQkNDx44d2+PKr9KluLj4zJkzZ86cIRKJwcHBy5cv19eXlTVoIdKitbU1IyND4OFmZ2cbGhoKxxN0dHTEe8ejUakYDGb9AmfxDisKl+Ny0wtqf1w9QZI3hforZlauXEmj0dra2t6+fWttbe3p6enp6enh4WFmZiZt0zrx9OnTyMjIqKgoFxcXKpUaEBCgqDhsagCGPZWVlcLxhIqKCltbW4HaOjg4KCkNbkZyWS1j5b77/+4LkGSx2cdZtP3W5iC3MZZi/kvzcaD+ihlB/JfJZKampiYnJ6ekpCQnJ3O5XA8PDw8PD09PT1dXVxkROyaTefPmzYiIiOTk5Hnz5lGp1EmTJonyaAmRQRAEyc/PF6hteno6l8sVqK2zs7OVlZXk2+ytPxrn42Is+iycWHieXXXw4stLOyUafABQf8XOh+bfSktLBVqcmZlpZWXF12JPT89Ro6T/Fayqqjp//nxERERLS8uKFSuCg4PNzc2lbRRkgHR0dGRmZgoCuG/evNHW1hZOCDMwMJC2jeBtcf2G3+MvbPfTUOnH3N1gwOLwlu28vW6B8xRnQwnfGuqvmOlL/gOLxUpLS0tOTuYrMpPJ5Guxh4eHm5vbYD/6fZz09PTIyMjz58+PGjWKSqUuXrxYTU1NivZA+kJ9fT3fveX/pNFolpaWAg/X0dFRNv8Tf72aVlbL2L9mknTNOHIltbapfe8qiUZ++UD9FTMDyD8rLy8XuMYZGRkWFhYC19jCwmLwTP0IXC6X3wn+wYMHvr6+VCrV19cXdoKXHYqKioQDuAwGQ5AN5uzsbGtrKxdZhmwOb/meOyH+o6e7mvR+9uDwurD2uz8TL273V1cWNX14AED9FTMi5v+y2ey0tDS+FicnJ7e3t7u7u/O12M3NTVlZufchOvM8u8rNRndgxgAA+J3g/zr1N41Gm+E/f9bchVY2diQCTpFMMByhgsfDEmdJwOFw3r59K1DbjIwMVVVV4XiCqamptG0cIG+L68N+iz8XPktLTQrJQkwWd/meO18EOHmPMZL83QHUX7Ej3vqLyspKQZgiLS1t1KhR/DCFp6enpaVlXybKvjwc+3uoT3/vW1Xf9qa4Lre0MaekIbe0AQBA5jXSMx8VpsUSycpmzj46VhOa2EQTXVVrIwr/n40JBQc7ToiJ5ubmLgVmpqamwglhQ6maMeLe2zvJxX9smEpRlWggmMnifvNbvOEIlW3B7pK8rzBQf8XM4NW/cTic9PR0gWvc0tIicI3d3d1VVMSQys7lIQnpZVHxeQXlTQ6jRlgbUayNNayNKCPU32VroCiakJAQERFx/fp1D09Pn5nz9Sw9iqpbs2j1Ta2seRPNAyaaC06G9J3S0lLheEJtbe3o0aMFajt69Oh+FZjJHSduvY59SZekBDNZ3NDf4nUpSj9QPbovyicxoP6KGYnVH1dVVQm0OC0tzcTExPM9VlZW/c0hq2lsv5aYf+NJoZGOyoLJFt7ORh+PLbS3t1+7di0iIiItLS0wMHDVqlVquqOuJuQ9eF4yxlI70MvS3XakaO9vKMPj8XJycoQTwvB4vHBCmLm5+XBrXydJCWayuaG/xutQFMOpnlIUXwD1V+xIpf8Dl8vNyMgQTOI1NjbyXWMPDw93d/ePz32jKHr5Ud7JfzN9XY0DvSxNR/ZvorysrOzs2bNqamr8t9zO5Nx7TrsYm6OvpbJ1hRv0hfm0tbXxC8z4Tm5WVpaBgYFwAFdXd+Ax+iHDiVuvHzyn7QmZYG08iO2ryutaw08lGWorS118AdRfsSML/XdqamoErvGrV6+MjY0FCRU2NjbCrnFZDWNXRAqCouFUDyMdVXEZwOUif999ExWf99UC59njpJ/dLHmqq6uFE8LKyspsbW0Fauvg4DCAqdThwL1nxYcvpwZMMg/xGy322V0URaPi84/fev3JDNtlU22kLr4A6q/YkQX9FYbL5WZmZia/p76+3s3Nje8aV7K1zsXTPptlv9jbajC+i3mljTv/SdZSVwj/xENTVeZaYYgRFEW7FJhxOBzhhDBra2uYvddH6po7fjr7vKKudfunntZGYnOEK+pad0eksDi88E88TXTF5mqICNRfMSNr+tuF2tralJSUlJSUKzceaFpMvHx856CudsXlISduvo59RT/+7TQt9aEjwUwmU7jALDMzc8SIEcLxBENDSVdSDTHuPis+fPnVGEudhV6WLlYi9WTIoTdcjc9/lEanzrALmiYTbq8AqL9iRsb1l8+vV9OeZVX+HuajpiSJnPOIe29vPimUawluaGgQjicUFRVZWloKJ4TJZoGZXNPG5NxJLr6akIeg6ILJln4epsqKxL5fzuLwHr4siYrPq2tmzp9kPneCuYTz2/oC1F8xI/v6K2Hx5SN3ElxcXCycENbS0uLg4CBQWzs7OyKxH1oAEYXUvOqrCflPXpcb66paG1OsjSg2xhRzfXUCvlNIh4cgxRXNOfTG7JL6HHpjYXmjo7l2oJfFeHt9mfJ5hYH6K2ZkXH//vv0mLpUuYfHlE3Hv7a2nhZHbZiqSZa40lsPhZGVlCReYKSkpCSeEmZqawrZw0oXJ4uaWNubQG3JKGrLpDWU1DDIRRyLgCAQcl4swOTwmi6tLUbQyeifQVkYUlf74ywJ+uZrmYKblJZFePHD9i2FETknDxbic8+F+khdfAAB1hh29mnE0Km3LcjfJ370LLS0tgrmytLS0vLw8ExMTvtr6+/s7OTlpaWlJ20ZIJ8gkvKP5CEfzEfxdNofXxuSwODwuF8HjsEQCTpGMJxPFIGjLplorkCQkjFB/hwtcLrLjdHLoIhepFNrzCV3ksmTnvy9yqlyt+5fu2tLSoqoq0px1WVmZcDyhpqbG3t7e2dnZw8NjzZo1o0ePlsHFSiAfgUjADVLvdkn+gkD9HS78dTtTX0t5prs0G7UoKxC2LnffE5FyYbtfH6MQqampYWFhEyZM2LNnT99vxOPxcnNzhRPCsFgsP56wcOHCH3/80cLCYrgVmEFkkOGnvzxawuUnZRpj5s6w/XgGPCsv9uqLdpsZfs6acv+LmlfaGJ1YcC58lrQNAePs9cZa6/wWnf7dUtePn1lRUbF169bIyEgURXutVmhvb+9SYKanp8ePJ4SFhTk5OY0cCeuhITLH8NNf1tOjIcH/Ou/Pnmar/LHHF9bjIyupF8aeLprtDABAqp/8Hr7z+L/P8quZOA0TlxnUbXs2zTCWl48v8n4WdaadFCMPwnwdOGbetpur/Ed/aOGD9vb2AwcO/Pzzz+3t7fwjaWlpXc6pqakRTggrLS21sbHhz5UFBwc7OjrCAjOI7CMvAiJx2BmxiZWEsd5eagCAtifhfrN+TOUZevgu86N0FD6+d/6Hec9Lrzw5NnuE7PvGjQxm0puKzct68TclhqoSaYqz4c2nhdQZdl1eQlE0MjJy27Zt5eXlwscrKipSUlJKS0sFIQUWi+Xo6Ojs7Ozn57dt2zYbGxs8Hn6ZIXIG/Mr2DK84Lj4PjF7qrYsFvNw/th5O4ziE3X30Py8NAABoT98302vb35v+R/Xd7ynzaaA3nxZOcTbsV+76YBPoZbH5z8crptsKJ2YmJiaGhYW9evWqx0vmzZvn6enp5OS0Zs0aJycnIyPpNMyGQMSI7HtvgwTakX1x84LxtiYGBmajJy/5ISqnXehVpDouLgOYe/mMwgFezpXLKUzVGaHfTdJ497Ki07qNC0YieVEXktnSML4fIAh6LSE/0Es66xh9CBtjTXUVUvLbCv5uYWHh/PnzJ0+e/CHxBQCEhoZGR0dv3759zpw5UHwhQ4Phqr8Nd9fN3vJ8hO+azVu/mqNfdmPvMt+1V6uR9y83P4p9wdGZ6O1EBKApJeUNF+8wcbKW0IelPGGSCxkpfZ5UJA3r+8Hz7Co1ZZKNscwtl7BgsmX044KmpqYNGzbY2tpGR0d//PzuIWAIRO5AEKSjo0OwO0zjD5ycl8i+lAff2REBACBkJmWC+46L+05sXPCDPQAAtD+NTWpVneQzjgwAt7SkjItRMjDR7fS3SsHYWAeLlBXTALCWxjvoK6l51RNG60vbih6YMFr/6JVULBa7ZMkSV1fXoqKiwsLCwsLCoqKisrKy7mWZUH8hQ4CDBw/m5OScOnWKvztM9Rej5EX9xOZ9QJRotyjAcc/L9Ph48IM9AID9KvZxLcndZ7ISAABpaW5FMUoqKp2rT3HKKkpYpIHK48qmAAAQSElEQVTBkLTp/SSH3rBgsqW0regBiiqZSMC1srGurq6urp3mBlksVnFxsbAiFxYW0mi01tZWmNUAkWv4/Qnu3r07c+ZMMGz1F2dkZ6+OFdodZaIIXpUVAwAA4GY/TCjBOq321sICAFAERVHQvYEHDocFAEFkvXtGDr1BjKsJcHP//jL0Uon6jN2nQ11Fns+zNqLk0Bv0tLpKKolEsra2trbu9GABG5VAhgDKysqnTp2iUqmZmZlqamrDNP6LUVVTF07+xSopKWLQtlYAAOCVxsZnAesp3sY4AADAKSopYFBme3vnX3+krbUDxSgqy/T6OjWN7QAAHQ0xGcnLPfblhr/uPniYmFUnDjG0NtbIoTf08WQMBgM74ECGAFOmTPH39w8LCwPDd/6Ny+V22udwOACQSAAApD7uUSrPYKK3Pf/ZAGugr4NFm8vLmxDhC9ilpVU8nK6BgcRMHgA59AYrQ3E5v7zcP77a8UTVSF9sRffWRpRceqO4RoNA5IUDBw48evTo7t27w1R/kcqyMiEBRporqxgoVnskAKAtMTa5gzLBx/VdizCslssYMxznzfPnHUIDsFKfpbdjNJ3GymJoVUBVQ5u4lrfg5f25fnuC1ic7PjUTm/4aaKtU1reKazQIRF7gRyE+//zzYaq/vOrEmJcswW5zQmI6B6vn7AYA61nsk2YlD+9JgqAk0WXBbAtcza2TF0ree8BI9Y0/o4pRPb+F3jIdf2CxeeLpEcUrOL4+PF5z5S97p6iILwZAwuPYHKT38yCQIceUKVNmz549/PQXRRAEYFUbroZ9e+ltIw8gzVnnNu68Xoe3C6JOAOz0mIQq3BjvKRr/XUF0+3rLHO2mO2F+S7afvHLj6j8/fjprzaVK9WlbN/sqSe+N9AEOFyESRP8v5hWe+Cr8kdZnv/w4Q6P3s/sOiYhjcri9nweBDEX2798//PIf2Cw2Cghum3+bdH+Ni3YwFocw2TyFUQGHIra6k3g5sfEFwH6xt76wamH1V/x1rRb9dMfV3auvoABgsEpms3afOv25uRwsaSvyRBmv8K+vwuM0P7u5d4YGQJrFYdM7EBRg4ZQaZLiirKw8/PRXI+QOMwQAAEBobnBa8svCZtwIK3dPuxFEAABPacp3kdZ6E227fi7qnmFX335W9DIls7yDNNLe3c1cQw60l0jANrfxRBqCV3Tq6+/jKCG39vqK1fcFAAA2R0zhEQhEPhl++iuEor6zj76z8BGcoeeCJR86Hadm5u5rNvhmiQ8yEc9ki6K/vOJ/vv7+ISXk1p5pYldfAJhsrlgWjIFA5BT47R/KGGqrxLwsGfDlSOmZDdvuMkd/Zk6LOnkSAAAA2vSyGkHbCx7+c7JC02H2AndtEcLLxZXNRmJKz4BA5BGov0MZa2NKbmkjiqIDq1zgFLxKr+cxak6EvjzR+ZX4Q2vj8Vbf2sx11xahCi6H3mhtJLbaPAhE7oD6O5RRUyKpKBBLaxhGOgNZvJIwJvRywmKm8AweWnv1m8W/lPodvLzBVcVgtGglyLn0hmVTZbp7EQQyqED9HeJYG2nk0BsGpr9YNbOx4zsHvBHaC2UMhqhl5TlhvMhr2OfSG2SwMSYEIjGGX/7vMMPGWDOnpK89FiRJZX0rkYCjqPa8BBwEMhyA+jvEcbcdGZdWKrbmYViT0AQWt+zkTJGd35iXdA9buCYxZFgD9XeIY2eqqaJATMmqlLYhnUBR9Fpi/oLJsrUqEgQiYWD8V46pq6tjMpm9nuZlq/xP9FM36/k4nKwUO6RkVaooEO1MtaRtCAQiTaD+yjEHDhz4+eefez2NQCCYjl9R+8UsXYqstKuIipe5JUEhEMkD4w9yzMKFC3s9x8zMLDk5edXna688ypOASX2hrJaRUVDj62oibUMgECkD9VeOcXV1NTU1/cgJgYGBqampLi4u1Bm2t5IK88uk3+wcRdE9kc+oM+zIJPjsBRnuQP2Vb3x8fHo8TiQSf/311ytXrqipqQEARqgrrpvvvPN0Mpcn5X67VxPy2Rxe0DQb6ZoBgcgCUH/lkqKion379rm4uERHR3d/1czMLCkpad26dcIH54wfpamqEHHvraRs7IHK+tbjN1+HUz26L2cKgQxDoP7KEzQa7cCBA2PHjh03bhydTj948GBNTU2XEIQg5tD98q0r3C/G5uaWSqccA0HQ3REpK6bbmIxUk/zdY2Njnz9/npubW1VV1d7eLnkDIBAAQBOD+ba4TrALY3ByQElJyeXLl69cuVJSUjJ//vwDBw5MnjxZkEwWGBjIz4IgEokHDx7s4vYKo6OhuDnILfTX+N9DfUwlK4IIgm7/OwmHxQZNl0LkITw8/MaNGyQSqaWlpbm5uaWlhcPhqKioqKmpqaqqCn522e3+Eh4Pf18gIlHV0P74dbkg8xJ+n2QXOp1+5cqVy5cvFxcXBwQE/PTTT15eXt1zeBcuXPjzzz+bmZldvny5R7dXGB8XIzaX9+Xh2GOhPhLzQ/ni29jKPPilFw4rhUeu2NjYo0ePenl5CY5wuVy+EPf4k06n9/gSkUj8kDR/SLWVlZU/YhhkuGFtTLE2/q/nH9RfmaO0tJQvu4WFhQEBAXv27PH29v5I6YSrq2toaOj27dv5U229MtPdFADwhaQkWFh8SdJY7QJF0czMTCcnJ+GDeDxeU1NTU7N/3X/a29t71Ovm5uby8vKsrKzuL3V0dKioqPTLy1ZTUyMSRessB5EToP7KCmVlZVFRUZcvX87Pz587d+6uXbu8vb37+MB76NChft1rprspioK1h2K/D3YfP1p/QPb2iYYW5t4zKUw279A66YgvAKCgoIBCoairq4s+lKKioqKi4siR/WhbgSBIj3rN36iqqurxJQwG09/YiIqKClYazxYQUYD6K2UqKir43m5ubu7cuXPDw8OnTp0qgTjjLA9TbXWF3REpY63poQtdlBXF73A9eEE7ePHVnAmjVs8eTcBLrfQ5PT29i/MrSbBYrLq6en/Vn8lk9qjXLS0tNTU1BQUF3V9qa2tTVFTsr2orKCgM0huH9AWov9KhsrKS7+1mZWXNmTPn+++/nzp1KoFAkKQNY611L2z3++Vq2pKdt7eucB9nryeukRtamPvPPy+ubD60zsvOVModfqWrvwODTCaTyWRtbe2+X4KiKIPB6K7X/J9FRUU9vsTj8fob0VZVVZWdRiLyDtRfiVJVVcWX3Tdv3syePXvz5s3Tpk2TYrBPkUzYHOT2wqVqT0SKnpZyoJflZCcDPG7gj7HFlc1R8Xn3n9PmTTTf/dl4WVjeOD09fdWqVdK2YtDBYDCqqqqqqqoGBgZ9v4rD4fToZTc3Nzc2NtJotO5S3tLSQiaT+xvRVlKSld4jMgVGbJ1hIQAAANauXevg4LB27Vrhg9XV1VevXr18+fLr16/9/f0XLVo0ffp0mZpj4XKRuDR6VHx+aQ1j3sRRARMttDUU+3X5o/TSqPi8kuqWuePNAyaZy06vH319/adPn5qYwHYTYqO1tfVDqSMfyiphsVgDmIeU8BOh6LS3t69fv/7zzz93dXXty/lQf8WMsP7W1NTwZTc9Pd3Pz2/RokW+vr4kksityweTwoqmq/H5d58Va6qSrYwo1kYUG2OKtRGlS4CYhyDFlS05JQ059IbskoaCskZrY0qgl+UUJ0M8XoZmgWpray0tLRsbpd/4YpjD5XL5vnMf9Zr/E4fDDWAecmCrzYqFiooKfX19AICzs/Pq1auDgoJUVD62wjfUXzFz5swZAwODKVOmdHR0mJqa+vj4LFq0aMaMGTIuu10QltccekN+aSOCoiQinoTHcnkoi8tjc3h6mkpW79XZyoiiMqAZvD+uZxjpqPh5mvV+6oCIiYnZu3dvfHz8II0PGVQ6Ojr6rtf8jfb2diUlpf6qNpksnnWwsrOzbW1tBbtKSkpLliz5iDsM9XcQ4fF4Q2OmAkXRDhaXzeGxuAgOiyETcGQiXix+bnMbi4DDKpIH6zHz559/rqioOHz48CCND5E1EARhMBh912v+TxRFBzAP2T3hLyUlxdPTs7tVzs7Oq1atCgoKUlXttBIu1F/IUCYoKGj69OlUKlXahkBkGhaL1auX3WW3tbVVQUGhizQzGIz79+9/6C5d3OHCiiaov5ChjJ2d3fnz5x0dHaVtCGSogaKoYB5SIMqxsbEnTpzo9doxY8YcOXr0ZAID5p9BhixMJpNGownH4yAQcYHBYFRUVFRUVPgTbnyam5s/or+GhobTpk2bNm2aj4/P3Vc1KoosqL+QIUtmZqalpaXc5TBB5Jfm5uYuR1RVVb28vPiya2VlxT/I4fLOxSQe3zgN6i9kyCKPlW8QuYavv3g83t3dna+5bm5u3dsJxKWWmhuom+iqQv2FDFmg/kIkjKen540bN7y8vLrkOXQhKj5v6VRrAOuPIUOY9PT0RYsWSdsKyDBi1qxZvZ5TUN5UXtc6ydEAwPWHIEOVHtv+QiBS58aTgnkTzPldVqD+QoYmBQUFmpqafexJD4FIjLS8GkGvQai/kKEJDP5CZBAOl0erbrEw1ODvQv2FDE2g/g55eLSEC2fP3ctq7e1EVl7s+XO30uqR/w6xaY8vnz3/MEf8K2G3Zt0/f/bK01Jej68WljcbaCkL1oKB+gsZmkD9HfKwnh4NCf50z+3qnqXuv/MeH1lJXXc6S9CtAamP+W72jJWH0vE6Qk1W2/OitwfN8p21/kIp0uM4Xen5AkUd7LP91Blzt8Q39XBNbmmDlRFcfxMy1IH6C+HDzohNrCSM9fZ6NxWAVF0LDTlGc/ghfpfXuzAAt+LR4dB1e6KyWxCU4DaptdeeDB+5AKs57aeTYU+8D4R8OyH5xJwRnV3cXHqjtZD+Qv8XMgSpqanp6OgwNjaWtiEQqcMrjovPA6O9vHX5Ytf8YMfmC5WjVh/Y4MLvOYnUXFjh4rstkfLpXztmKvahdXCvFyh6bNr/qXFJ5MY9CV1jI5X1bQbayoJdqL+QIUh6ejrsuTNcQDuyL25eMN7WxMDAbPTkJT9EdQrqItVxcRnA3MtnFA4AAHhFEQfOFSt4fbV+vCD0wGxT9d77IDX+yGJzhT51bu/9ApUpoWvHEwoiDpyld45lsDhcotBatDD+ABmCwODD8KHh7rrZNKzvp2s2a3Xk3DxxfO+yZDrm+T8LdN65u49iX3B0Fnk7EQEAgJd38dzTNpWZyxYaClxPrFHI8XMAAAD6OBnXlwtwZkuWTtqe+Oj8leJVG0b9J7hsLkISWhQR+r+QIQjU32EDJ+clsvbfe3+Gr1/zxaYjN6O3jMWVXtx3IovLf7n9aWxSq+p4n3FkAABAqh4+zOCQxk6brjnYyofVmT7VmcB++TC2rstsnnBwGeovZAgC9XfYgFHyon5i837tK6LdogBHPCczPr4GAAAA+1Xs41qSu89k/mqw7PSMHA7OyMlZa/CFD6fn7KCHZWelZ3KEjpIIOBb7v3wNqL+QoUZHRwds+ztswBnZ2atjhXZHmSgCXllxMQAAcLMfJpRgnaZ4v9NbRnlZA4LVNzKURNwVb2ysj0Vqy8qYQgfJRHwHmyvY/T8aUUTTj6VCmgAAAABJRU5ErkJggg==;" vertex="1" parent="1">
          <mxGeometry x="22" y="337" width="188.5" height="158.36" as="geometry" />
        </mxCell>
        <mxCell id="Qa4QHLr7aCHY2gj8fnbk-20" value="3" style="ellipse;whiteSpace=wrap;html=1;fontFamily=Helvetica;fontSize=16;" vertex="1" parent="1">
          <mxGeometry x="135" y="220" width="24" height="24" as="geometry" />
        </mxCell>
        <mxCell id="Qa4QHLr7aCHY2gj8fnbk-21" value="a/1" style="edgeStyle=none;shape=connector;rounded=0;orthogonalLoop=1;jettySize=auto;html=1;labelBackgroundColor=default;fontFamily=Helvetica;fontSize=16;fontColor=default;endArrow=blockThin;endFill=1;" edge="1" parent="1" source="5e5Drool1029RDPdJJ9p-2" target="Qa4QHLr7aCHY2gj8fnbk-20">
          <mxGeometry relative="1" as="geometry">
            <mxPoint x="152.51" y="161.49" as="sourcePoint" />
            <mxPoint x="202.51" y="111.49" as="targetPoint" />
            <Array as="points" />
          </mxGeometry>
        </mxCell>
        <mxCell id="Qa4QHLr7aCHY2gj8fnbk-24" value="a/0" style="edgeStyle=none;shape=connector;rounded=0;orthogonalLoop=1;jettySize=auto;html=1;labelBackgroundColor=default;fontFamily=Helvetica;fontSize=16;fontColor=default;endArrow=blockThin;endFill=1;" edge="1" parent="1" source="5e5Drool1029RDPdJJ9p-5" target="5e5Drool1029RDPdJJ9p-2">
          <mxGeometry relative="1" as="geometry">
            <mxPoint x="86" y="102" as="sourcePoint" />
            <mxPoint x="177" y="102" as="targetPoint" />
            <Array as="points" />
          </mxGeometry>
        </mxCell>
        <mxCell id="Qa4QHLr7aCHY2gj8fnbk-25" value="4" style="ellipse;whiteSpace=wrap;html=1;fontFamily=Helvetica;fontSize=16;" vertex="1" parent="1">
          <mxGeometry x="37" y="259" width="24" height="24" as="geometry" />
        </mxCell>
        <mxCell id="Qa4QHLr7aCHY2gj8fnbk-29" value="a/0" style="edgeStyle=none;shape=connector;rounded=0;orthogonalLoop=1;jettySize=auto;html=1;labelBackgroundColor=default;fontFamily=Helvetica;fontSize=16;fontColor=default;endArrow=blockThin;endFill=1;" edge="1" parent="1" source="Qa4QHLr7aCHY2gj8fnbk-20" target="Qa4QHLr7aCHY2gj8fnbk-25">
          <mxGeometry relative="1" as="geometry">
            <mxPoint x="75.84" y="201.49" as="sourcePoint" />
            <mxPoint x="105.84" y="262.49" as="targetPoint" />
            <Array as="points" />
          </mxGeometry>
        </mxCell>
        <mxCell id="Qa4QHLr7aCHY2gj8fnbk-30" value="6" style="ellipse;whiteSpace=wrap;html=1;fontFamily=Helvetica;fontSize=16;" vertex="1" parent="1">
          <mxGeometry x="-66" y="173" width="24" height="24" as="geometry" />
        </mxCell>
        <mxCell id="Qa4QHLr7aCHY2gj8fnbk-31" value="b/1" style="edgeStyle=none;shape=connector;rounded=0;orthogonalLoop=1;jettySize=auto;html=1;labelBackgroundColor=default;fontFamily=Helvetica;fontSize=16;fontColor=default;endArrow=blockThin;endFill=1;" edge="1" parent="1" source="Qa4QHLr7aCHY2gj8fnbk-30" target="5e5Drool1029RDPdJJ9p-1">
          <mxGeometry relative="1" as="geometry">
            <mxPoint x="65.09" y="191.57" as="sourcePoint" />
            <mxPoint x="-8.909999999999997" y="201.57" as="targetPoint" />
            <Array as="points" />
          </mxGeometry>
        </mxCell>
        <mxCell id="Qa4QHLr7aCHY2gj8fnbk-32" value="b/1" style="edgeStyle=none;shape=connector;rounded=0;orthogonalLoop=1;jettySize=auto;html=1;labelBackgroundColor=default;fontFamily=Helvetica;fontSize=16;fontColor=default;endArrow=blockThin;endFill=1;" edge="1" parent="1" source="5e5Drool1029RDPdJJ9p-2" target="5e5Drool1029RDPdJJ9p-1">
          <mxGeometry relative="1" as="geometry">
            <mxPoint x="59" y="192" as="sourcePoint" />
            <mxPoint x="33.96" y="166.4" as="targetPoint" />
            <Array as="points">
              <mxPoint x="50" y="162" />
            </Array>
          </mxGeometry>
        </mxCell>
        <mxCell id="Qa4QHLr7aCHY2gj8fnbk-33" value="b/1" style="edgeStyle=none;shape=connector;rounded=0;orthogonalLoop=1;jettySize=auto;html=1;labelBackgroundColor=default;fontFamily=Helvetica;fontSize=16;fontColor=default;endArrow=blockThin;endFill=1;" edge="1" parent="1" source="Qa4QHLr7aCHY2gj8fnbk-20" target="5e5Drool1029RDPdJJ9p-5">
          <mxGeometry relative="1" as="geometry">
            <mxPoint x="221.26999999999998" y="129.45" as="sourcePoint" />
            <mxPoint x="130.26999999999998" y="129.45" as="targetPoint" />
            <Array as="points">
              <mxPoint x="155" y="141" />
            </Array>
          </mxGeometry>
        </mxCell>
        <mxCell id="Qa4QHLr7aCHY2gj8fnbk-34" value="b/1" style="edgeStyle=none;shape=connector;rounded=0;orthogonalLoop=1;jettySize=auto;html=1;labelBackgroundColor=default;fontFamily=Helvetica;fontSize=16;fontColor=default;endArrow=blockThin;endFill=1;" edge="1" parent="1" source="5e5Drool1029RDPdJJ9p-5" target="5e5Drool1029RDPdJJ9p-5">
          <mxGeometry relative="1" as="geometry">
            <mxPoint x="84.71000000000001" y="189.45" as="sourcePoint" />
            <mxPoint x="18" y="68" as="targetPoint" />
            <Array as="points">
              <mxPoint x="60" y="106" />
              <mxPoint x="30" y="75" />
            </Array>
          </mxGeometry>
        </mxCell>
        <mxCell id="Qa4QHLr7aCHY2gj8fnbk-36" value="a/1" style="edgeStyle=none;shape=connector;rounded=0;orthogonalLoop=1;jettySize=auto;html=1;labelBackgroundColor=default;fontFamily=Helvetica;fontSize=16;fontColor=default;endArrow=blockThin;endFill=1;" edge="1" parent="1" source="Qa4QHLr7aCHY2gj8fnbk-30" target="Qa4QHLr7aCHY2gj8fnbk-20">
          <mxGeometry x="0.0024" relative="1" as="geometry">
            <mxPoint x="-9.159999999999997" y="166.17" as="sourcePoint" />
            <mxPoint x="20.840000000000003" y="227.17" as="targetPoint" />
            <Array as="points" />
            <mxPoint as="offset" />
          </mxGeometry>
        </mxCell>
        <mxCell id="Qa4QHLr7aCHY2gj8fnbk-37" value="b/0" style="edgeStyle=none;shape=connector;rounded=0;orthogonalLoop=1;jettySize=auto;html=1;labelBackgroundColor=default;fontFamily=Helvetica;fontSize=16;fontColor=default;endArrow=blockThin;endFill=1;" edge="1" parent="1" source="Qa4QHLr7aCHY2gj8fnbk-25" target="Qa4QHLr7aCHY2gj8fnbk-25">
          <mxGeometry relative="1" as="geometry">
            <mxPoint x="9" y="245.07" as="sourcePoint" />
            <mxPoint x="1" y="237.07" as="targetPoint" />
            <Array as="points">
              <mxPoint x="16" y="313" />
              <mxPoint x="-2" y="268" />
            </Array>
          </mxGeometry>
        </mxCell>
        <mxCell id="Qa4QHLr7aCHY2gj8fnbk-38" value="a/1" style="edgeStyle=none;shape=connector;rounded=0;orthogonalLoop=1;jettySize=auto;html=1;labelBackgroundColor=default;fontFamily=Helvetica;fontSize=16;fontColor=default;endArrow=blockThin;endFill=1;" edge="1" parent="1" source="Qa4QHLr7aCHY2gj8fnbk-25" target="Qa4QHLr7aCHY2gj8fnbk-30">
          <mxGeometry relative="1" as="geometry">
            <mxPoint x="-92.31" y="206.28" as="sourcePoint" />
            <mxPoint x="84.69" y="247.28" as="targetPoint" />
            <Array as="points" />
          </mxGeometry>
        </mxCell>
      </root>
    </mxGraphModel>
  </diagram>
</mxfile>
